<?xml version="1.0" standalone="no"?>
<!DOCTYPE svg PUBLIC "-//W3C//DTD SVG 20010904//EN"
 "http://www.w3.org/TR/2001/REC-SVG-20010904/DTD/svg10.dtd">
<svg version="1.0" xmlns="http://www.w3.org/2000/svg"
 width="512.000000pt" height="512.000000pt" viewBox="0 0 512.000000 512.000000"
 preserveAspectRatio="xMidYMid meet">
<metadata>
Created by potrace 1.16, written by Peter Selinger 2001-2019
</metadata>
<g transform="translate(0.000000,512.000000) scale(0.100000,-0.100000)"
fill="#000000" stroke="none">
<path d="M2280 4460 c0 -5 5 -10 10 -10 6 0 10 5 10 10 0 6 -4 10 -10 10 -5 0
-10 -4 -10 -10z"/>
<path d="M2286 4411 c-9 -14 -3 -111 6 -111 4 0 8 27 8 60 0 59 -3 69 -14 51z"/>
<path d="M1620 4351 c-47 -27 -103 -65 -125 -85 -22 -21 -49 -43 -60 -51 -11
-7 -17 -16 -13 -20 8 -8 64 20 75 38 10 17 223 140 230 133 10 -9 -45 -52
-126 -96 -73 -40 -102 -70 -69 -70 22 0 198 110 209 131 14 28 3 69 -19 68 -9
0 -55 -22 -102 -48z"/>
<path d="M1905 4280 c-34 -13 -529 -301 -549 -318 -25 -22 -56 -90 -56 -124 0
-19 -7 -28 -28 -36 -59 -20 -152 -127 -152 -174 0 -11 -14 -26 -31 -36 -49
-27 -75 -50 -66 -58 5 -5 26 1 47 14 50 28 56 28 35 -4 -9 -14 -14 -28 -12
-31 3 -2 30 10 61 27 38 22 56 38 56 51 0 66 98 169 160 169 20 0 70 -41 70
-57 0 -4 -20 -21 -45 -36 -25 -16 -45 -33 -45 -38 0 -14 10 -11 57 16 l43 26
0 -114 c0 -86 3 -117 14 -126 11 -9 16 -9 22 0 4 7 2 15 -4 17 -8 2 -12 42
-12 128 0 159 -19 200 -100 222 -32 8 -35 12 -32 43 5 69 21 81 370 285 116
68 221 124 233 124 11 0 29 -5 40 -10 18 -10 19 -24 19 -298 l0 -287 -73 -41
c-314 -178 -728 -419 -857 -501 -31 -19 -48 -39 -56 -61 -14 -43 -33 -58 -244
-182 -96 -57 -185 -112 -197 -123 -19 -17 -23 -31 -23 -83 l0 -62 -67 -39 -68
-39 -3 -64 c-3 -58 -1 -67 21 -85 28 -23 47 -73 47 -122 0 -31 -2 -33 -25 -27
-31 8 -149 -47 -160 -74 -3 -9 -6 -84 -5 -166 1 -153 11 -199 46 -213 12 -4
11 -8 -6 -20 -24 -17 -50 -64 -50 -92 0 -11 12 -34 26 -51 40 -47 99 -72 180
-78 l70 -4 29 -55 c18 -35 46 -68 74 -89 43 -31 408 -204 431 -204 8 0 8 -6 0
-20 -10 -19 -5 -23 52 -49 35 -16 112 -52 172 -80 68 -32 113 -48 119 -42 5 5
7 13 4 18 -4 6 -67 38 -141 73 -75 35 -134 65 -131 68 2 2 118 -52 257 -121
322 -159 754 -358 838 -385 279 -91 601 -88 890 8 111 36 121 42 940 518 341
198 380 231 388 327 3 41 -1 62 -21 101 l-25 50 76 51 c42 28 145 90 227 138
183 107 187 110 183 149 -3 27 -12 36 -73 67 -80 42 -115 54 -115 41 0 -4 33
-25 74 -46 92 -45 105 -59 78 -81 -26 -22 -165 -97 -157 -85 15 24 -16 7 -36
-19 -11 -15 -40 -38 -62 -51 l-42 -22 30 26 c17 14 24 25 18 26 -18 0 -113
-60 -113 -71 0 -6 4 -7 10 -4 5 3 7 0 5 -7 -3 -7 -29 -28 -57 -45 -52 -31 -53
-31 -78 -13 -34 24 -351 190 -365 190 -5 1 2 7 16 15 37 20 48 98 33 244 -10
93 -23 95 -142 26 -53 -31 -103 -63 -111 -70 -11 -11 -14 -44 -12 -150 2 -95
-1 -135 -8 -130 -7 4 -11 48 -11 115 0 62 -4 111 -10 115 -6 4 -10 -18 -10
-59 0 -36 -2 -66 -5 -66 -10 0 -355 175 -355 180 0 3 25 19 56 35 66 35 77 57
68 136 -6 53 -5 58 17 72 13 8 48 20 77 26 29 6 69 18 88 26 20 8 38 15 40 15
2 0 4 -51 4 -113 0 -100 2 -116 20 -132 26 -23 51 -16 141 43 41 26 101 63
134 82 33 18 75 44 93 57 l33 25 -2 187 -1 188 50 47 50 47 126 -63 126 -63 0
-166 0 -167 -35 -21 c-19 -11 -35 -25 -35 -31 0 -16 14 -12 51 13 l34 23 3
181 2 181 78 43 c139 75 132 67 132 169 0 103 6 96 -137 169 l-82 43 -3 119
c-2 65 -1 119 3 119 3 0 10 -5 16 -11 6 -6 21 -9 34 -7 l24 3 3 273 c1 171 -1
280 -8 292 -5 10 -51 42 -101 70 -50 28 -136 78 -192 111 -74 44 -107 59 -124
54 l-23 -5 0 -276 c0 -152 4 -283 9 -293 6 -10 28 -25 49 -35 47 -21 52 -37
52 -170 l0 -91 -46 -25 c-85 -44 -134 -79 -134 -94 0 -9 10 -24 22 -36 17 -16
18 -20 6 -20 -25 0 -30 -28 -8 -50 19 -19 19 -19 -1 -25 -34 -11 -17 -38 43
-70 54 -29 56 -31 43 -55 -16 -30 -10 -47 22 -64 l25 -13 -34 -34 c-70 -70
-105 -96 -205 -152 -56 -32 -115 -69 -131 -82 l-29 -25 5 -162 c2 -90 9 -168
13 -174 6 -8 4 -14 -7 -18 -9 -4 -18 -5 -20 -4 -1 2 -4 109 -5 238 l-2 234 69
38 c64 35 90 58 65 58 -10 0 -150 -66 -160 -76 -2 -2 -3 -107 -2 -232 2 -227
-3 -298 -20 -270 -11 16 -12 499 -1 514 4 6 16 14 27 18 11 4 57 28 102 54
l81 46 5 81 c4 86 -14 147 -46 153 -9 2 -50 -15 -89 -37 -122 -67 -110 -30
-109 -324 l2 -256 -30 -16 c-17 -8 -67 -24 -111 -35 -45 -10 -88 -24 -96 -31
-10 -8 -14 -34 -14 -88 l0 -77 -90 -53 c-50 -28 -88 -56 -85 -62 4 -5 13 -6
21 -1 9 5 79 -25 201 -85 104 -51 194 -93 201 -93 8 0 12 -17 12 -50 0 -44 3
-52 25 -62 22 -10 35 -6 106 30 l80 42 110 -56 c149 -76 168 -116 100 -203
-50 -65 -68 -112 -33 -90 14 9 36 3 112 -34 52 -24 104 -51 114 -59 19 -15 18
-16 -20 -41 -21 -14 -158 -94 -304 -177 -146 -84 -381 -220 -523 -302 -337
-195 -392 -219 -591 -257 -285 -55 -545 -28 -798 82 -57 25 -265 120 -463 212
-198 91 -503 232 -679 313 -329 152 -389 188 -416 252 -9 22 -10 37 -3 53 15
33 137 90 198 92 61 3 63 3 46 14 -16 10 -29 1 182 125 86 51 147 93 147 102
0 17 3 18 -237 -123 -78 -45 -166 -92 -196 -103 -30 -11 -80 -38 -111 -60 -50
-35 -64 -40 -113 -40 -73 0 -128 17 -164 51 -37 34 -37 68 -1 104 20 21 193
113 324 173 3 2 8 -7 10 -20 2 -17 20 -31 68 -55 36 -18 73 -32 84 -32 10 -1
68 27 128 61 109 62 109 63 106 98 -2 28 -11 40 -39 58 -32 21 -35 27 -30 55
5 25 19 38 66 66 l59 34 102 -51 101 -52 5 -48 c3 -26 12 -60 22 -74 12 -19
93 -66 267 -154 191 -98 249 -132 249 -146 0 -15 56 -46 244 -139 204 -101
255 -122 315 -131 97 -14 197 1 281 44 l65 33 54 -27 c30 -16 64 -28 75 -28
12 0 53 20 91 44 88 53 93 77 25 116 -53 31 -58 49 -27 110 19 39 35 52 120
101 54 30 105 63 114 72 14 14 16 39 14 165 -2 124 1 151 13 162 12 9 16 31
16 79 l0 67 83 44 c131 69 165 96 177 138 8 25 10 212 8 584 -3 544 -3 548
-24 569 -12 12 -93 58 -180 103 l-159 81 -5 74 c-3 51 -10 77 -20 83 -139 83
-233 129 -253 124 -42 -10 -77 -52 -77 -91 0 -19 -3 -35 -6 -35 -4 0 -48 23
-99 50 -79 43 -101 50 -147 50 -46 0 -65 -6 -124 -41 -86 -52 -107 -70 -96
-81 6 -6 46 12 98 41 49 28 101 51 116 51 28 0 154 -58 230 -106 l38 -24 0
-115 0 -114 61 38 c62 39 62 39 96 23 44 -21 67 -8 71 42 2 20 6 36 10 35 4 0
99 -48 212 -107 l205 -107 3 -462 2 -462 -57 -34 -58 -33 -3 168 c-1 92 -7
168 -12 168 -5 0 -10 -105 -12 -241 l-3 -241 -30 -24 -30 -24 -6 63 c-4 34 -7
154 -8 266 -1 175 -3 207 -18 223 -19 21 -163 101 -170 94 -14 -14 14 -46 60
-71 90 -48 87 -41 87 -189 l0 -131 -217 -125 c-118 -69 -232 -139 -252 -157
l-36 -31 -3 -127 c-4 -150 0 -172 35 -186 23 -8 44 1 182 78 230 128 275 153
284 153 4 0 7 -24 7 -54 0 -48 -3 -57 -27 -74 -79 -55 -484 -278 -523 -288
-55 -14 -79 -7 -166 45 -38 23 -90 52 -116 64 l-47 22 -1 161 0 160 -27 26
c-16 14 -61 44 -100 68 l-73 42 0 144 c0 79 1 144 3 144 2 0 74 -36 159 -80
172 -89 214 -97 293 -61 56 25 537 300 554 316 11 11 4 18 -45 43 -104 53 -94
21 -96 326 -1 258 -2 269 -22 292 -12 13 -136 82 -277 154 -287 146 -300 149
-385 103 -27 -14 -66 -35 -87 -45 -20 -10 -78 -43 -127 -73 l-90 -55 0 273 c0
302 -1 306 -66 333 -18 8 -35 14 -36 13 -2 0 -12 -4 -23 -9z m2493 -231 c97
-55 183 -108 190 -117 14 -19 18 -512 3 -512 -4 0 -48 23 -97 51 -49 28 -133
73 -186 100 l-98 49 0 265 c0 146 3 265 6 265 3 0 85 -45 182 -101z m-1428 -4
l50 -25 0 -125 0 -126 -30 16 c-28 14 -29 18 -32 92 -2 50 -7 78 -15 81 -10 3
-13 -18 -13 -80 l0 -84 -34 -17 c-19 -8 -37 -13 -40 -10 -3 4 -6 66 -6 139 0
126 1 134 22 148 30 21 40 20 98 -9z m143 -70 c35 -24 37 -28 37 -80 0 -30 -3
-55 -7 -55 -5 0 -26 11 -48 23 -39 22 -40 25 -43 80 -3 66 4 70 61 32z m-409
-266 c144 -71 267 -137 274 -146 15 -21 17 -223 2 -223 -6 0 -65 -32 -133 -70
l-122 -71 -3 113 c-1 62 -7 117 -12 122 -6 6 14 24 52 47 l62 37 18 -29 c21
-34 46 -37 76 -8 26 24 20 44 -8 29 -44 -23 -56 7 -19 46 l21 23 -33 15 c-19
8 -62 30 -95 50 -34 19 -65 32 -68 29 -17 -17 1 -36 64 -68 44 -22 67 -39 64
-47 -7 -16 -171 -98 -179 -90 -3 3 23 24 57 46 76 48 60 60 -22 17 -64 -34
-86 -37 -114 -16 -23 17 -25 14 37 49 26 16 44 32 41 37 -9 15 -22 11 -79 -27
-50 -34 -57 -36 -84 -24 -34 14 -13 23 -236 -103 -168 -95 -195 -113 -195
-131 0 -7 3 -7 8 1 4 6 65 44 136 83 180 99 226 122 226 110 0 -5 -4 -10 -10
-10 -5 0 -82 -39 -171 -87 -101 -54 -163 -93 -166 -104 -3 -11 -8 -17 -12 -15
-3 2 -5 -33 -3 -77 3 -68 1 -80 -10 -69 -18 18 -16 175 2 197 7 8 70 47 139
86 69 39 146 84 171 99 25 15 100 58 168 95 67 38 122 75 122 82 0 22 -19 15
-129 -46 -58 -32 -121 -66 -138 -75 l-33 -17 0 61 c0 58 1 61 21 55 36 -12 17
17 -34 51 -26 17 -50 34 -53 37 -10 10 88 67 114 67 14 0 142 -59 286 -131z
m-1447 26 c-39 -40 -62 -80 -83 -153 -7 -25 -29 -5 -26 23 7 58 60 132 117
163 40 22 37 11 -8 -33z m1093 -100 l0 -86 -32 17 c-89 46 -189 107 -186 115
2 6 30 27 63 48 l60 38 48 -24 47 -23 0 -85z m-320 -10 c-7 -8 -40 -32 -73
-52 -33 -20 -56 -38 -49 -41 6 -2 20 2 32 8 20 11 21 10 10 -10 -6 -11 -22
-25 -36 -30 -29 -12 -25 -25 11 -34 36 -9 61 8 75 49 6 19 16 35 21 35 11 0
11 -76 3 -251 l-7 -125 -73 35 -73 36 -2 115 c-2 186 -6 177 101 241 72 43 78
46 60 24z m193 -50 c42 -22 76 -44 74 -49 -2 -5 -57 -40 -123 -78 l-119 -69
-3 83 c-4 97 3 142 24 162 17 18 17 18 147 -49z m-391 -81 c-6 -10 -86 -62
-178 -116 -255 -147 -254 -146 -254 -163 0 -8 5 -15 11 -15 12 0 275 148 367
206 l52 34 0 -94 0 -94 -203 -116 c-112 -63 -216 -127 -230 -140 l-27 -25 0
133 c0 125 1 134 23 154 24 23 440 263 445 257 2 -2 -1 -11 -6 -21z m2598 -19
c0 -3 -18 4 -40 15 -22 11 -40 23 -40 25 0 3 18 -4 40 -15 22 -11 40 -23 40
-25z m-1835 -8 c51 -28 81 -50 84 -63 3 -18 2 -18 -15 -3 -11 9 -53 36 -94 59
-85 47 -89 50 -69 50 8 0 50 -20 94 -43z m1811 -18 c118 -63 114 -56 114 -171
l0 -99 -100 53 -100 53 0 103 c0 56 2 102 4 102 2 0 39 -19 82 -41z m-1812
-46 l99 -56 -7 -66 c-3 -36 -6 -75 -6 -86 0 -13 -13 -27 -35 -40 -36 -18 -36
-18 -79 3 -41 19 -56 20 -56 0 0 -4 17 -15 38 -24 27 -13 32 -18 19 -21 -9 -3
-49 13 -88 35 l-71 39 106 62 c58 34 106 68 106 76 0 8 -3 15 -8 15 -4 0 -58
-30 -121 -66 -110 -63 -114 -65 -133 -47 -19 17 -21 17 -44 -10 -24 -28 -24
-30 -24 -258 0 -151 -3 -228 -10 -224 -6 4 -10 97 -10 245 l0 239 28 19 c15
10 73 45 130 77 56 31 105 61 108 66 9 16 -27 10 -54 -9 -15 -10 -73 -45 -129
-77 l-103 -59 -3 -245 -2 -246 -3 252 -2 251 118 67 c64 37 125 74 135 83 30
26 -2 33 -47 10 -87 -44 -235 -130 -247 -144 -8 -10 -10 -48 -7 -129 5 -109 5
-114 -13 -104 -17 9 -19 23 -19 128 l0 118 28 12 c69 31 284 155 274 159 -6 2
-55 -21 -109 -50 -54 -30 -117 -62 -141 -72 -23 -11 -48 -26 -55 -34 -6 -8
-15 -54 -18 -101 l-6 -86 -1 97 -2 96 163 85 c105 55 169 84 182 80 11 -3 64
-30 119 -60z m386 -248 c0 -80 1 -148 1 -152 2 -8 -239 -152 -253 -153 -5 0
-8 68 -8 150 l0 151 43 25 c161 98 203 122 210 123 4 1 7 -64 7 -144z m1432
41 c70 -38 126 -73 125 -79 -1 -6 -24 -26 -52 -43 -56 -36 -50 -38 -165 31
-30 18 -81 46 -114 63 l-59 30 27 17 c26 18 28 17 69 -5 23 -13 45 -28 49 -34
5 -7 13 -6 23 5 15 15 14 17 -9 33 -16 10 -35 14 -50 10 -13 -3 -27 -1 -30 5
-7 11 33 43 49 39 6 -2 67 -34 137 -72z m-3078 29 c-3 -8 -58 -44 -122 -81
-65 -37 -130 -76 -145 -87 -35 -24 -44 -17 -14 11 17 16 272 170 284 172 1 0
0 -7 -3 -15z m656 -75 c86 -44 119 -67 124 -83 3 -12 6 -79 6 -149 l0 -126
-79 46 c-44 26 -103 59 -130 74 l-51 28 0 135 c0 74 3 135 6 135 3 0 59 -27
124 -60z m2320 38 c0 -6 -6 -5 -15 2 -8 7 -15 14 -15 16 0 2 7 1 15 -2 8 -4
15 -11 15 -16z m-2497 -215 c-4 -2 -23 -12 -40 -23 l-33 -20 0 -164 c0 -158
-1 -165 -22 -180 -21 -15 -23 -14 -43 22 -19 35 -83 85 -161 127 -61 33 -64
22 -64 -214 1 -275 -4 -264 161 -351 l124 -66 3 -168 2 -168 -167 87 c-93 48
-174 93 -181 100 -10 9 -13 110 -13 478 1 406 3 470 17 499 19 40 18 39 244
168 l175 99 3 -112 c1 -61 -1 -113 -5 -114z m610 171 c39 -20 84 -45 100 -56
l27 -19 0 -225 0 -224 -22 0 c-13 0 -62 19 -110 42 l-88 43 0 238 c0 155 4
237 10 237 6 0 43 -16 83 -36z m-1093 -170 l0 -185 -87 47 c-49 26 -111 60
-139 75 -46 26 -64 28 -64 9 0 -4 34 -25 75 -46 41 -21 74 -42 73 -46 -2 -5
-32 -25 -68 -45 -35 -21 -64 -42 -63 -48 0 -5 53 -37 117 -69 64 -32 116 -62
116 -67 0 -4 -30 -25 -66 -45 -78 -44 -126 -82 -118 -95 3 -5 17 -1 32 9 40
28 172 102 183 102 5 0 9 -12 9 -27 0 -25 -15 -36 -155 -117 -85 -50 -155 -93
-155 -97 0 -21 24 -13 106 34 204 120 207 122 195 99 -6 -12 -21 -27 -34 -33
-12 -7 -103 -62 -202 -124 -99 -61 -243 -149 -320 -194 -77 -46 -157 -97 -178
-113 l-37 -29 0 99 c0 86 -3 101 -20 117 -12 11 -20 31 -20 50 0 27 5 34 25
39 13 3 50 22 82 41 l58 35 5 -49 c3 -28 8 -52 11 -56 6 -5 73 35 137 80 31
23 17 41 -16 19 -14 -9 -40 -25 -59 -36 l-33 -20 0 39 0 38 120 70 120 69 0
226 1 225 177 102 c97 55 180 102 185 102 4 1 7 -82 7 -185z m1369 -148 c7 -9
18 -16 23 -16 23 0 278 155 284 172 5 17 9 16 55 -9 27 -16 49 -30 49 -33 0
-5 -498 -299 -521 -308 -5 -2 -9 99 -9 225 l0 228 48 27 47 27 5 -148 c4 -103
10 -153 19 -165z m1520 293 c18 -11 31 -22 28 -25 -6 -7 -49 15 -60 30 -6 8
-10 7 -14 -1 -2 -7 -12 -13 -21 -13 -13 0 -12 3 4 15 24 18 23 19 63 -6z m428
-41 c43 -23 80 -43 83 -46 8 -6 -40 -42 -92 -68 l-47 -24 -66 41 c-36 23 -65
43 -65 44 0 5 66 45 74 45 3 0 6 -7 6 -15 0 -9 6 -12 16 -8 12 4 15 14 11 39
-3 19 -4 34 -2 34 2 0 39 -19 82 -42z m-406 -18 c10 -6 19 -20 19 -31 0 -19
-1 -19 -30 3 -44 32 -36 53 11 28z m69 -56 c0 -34 -4 -53 -10 -49 -5 3 -10 31
-10 61 0 34 4 53 10 49 6 -3 10 -31 10 -61z m-136 42 c-3 -8 -12 -12 -20 -9
-21 8 -17 23 6 23 13 0 18 -5 14 -14z m-198 -14 c-3 -5 -42 -30 -87 -56 -70
-41 -80 -50 -75 -69 3 -12 6 -43 6 -69 0 -36 4 -48 15 -48 8 0 15 8 15 18 0 9
21 29 47 45 55 34 51 47 -6 17 -64 -32 -48 -15 19 21 33 17 60 38 60 45 0 9
-21 1 -59 -21 -67 -40 -71 -41 -71 -20 0 12 124 95 143 95 4 0 7 -29 7 -64 l0
-63 -80 -47 c-44 -25 -89 -46 -100 -46 -19 0 -20 6 -20 90 l0 90 77 45 c70 41
122 58 109 37z m245 -19 c13 -15 12 -15 -8 -4 -24 12 -29 21 -14 21 5 0 15 -7
22 -17z m224 -26 c81 -41 96 -57 52 -57 -28 0 -147 69 -147 86 0 19 -1 19 95
-29z m-2268 -144 c-2 -32 -3 -8 -3 52 0 61 1 87 3 58 2 -29 2 -78 0 -110z m40
-20 c-2 -32 -3 -8 -3 52 0 61 1 87 3 58 2 -29 2 -78 0 -110z m2523 148 c0 -13
-142 -91 -153 -84 -5 3 26 25 70 49 89 49 83 47 83 35z m-317 -42 c41 -22 61
-28 74 -21 20 11 43 5 43 -10 0 -6 -7 -8 -15 -4 -22 8 -18 -11 6 -35 34 -34
15 -32 -57 7 -86 47 -124 73 -124 85 0 15 13 11 73 -22z m-163 -4 c0 -14 -4
-25 -10 -25 -11 0 -14 33 -3 43 11 11 13 8 13 -18z m-3330 -28 c0 -20 -5 -34
-12 -34 -7 0 -77 -39 -156 -87 -79 -47 -147 -86 -153 -86 -5 0 -9 -7 -9 -15 0
-8 4 -15 9 -15 9 0 247 139 294 172 l27 19 -2 -168 -3 -168 -100 -58 -100 -57
-10 52 c-10 51 -13 55 -77 98 l-67 45 -1 58 c0 42 4 61 18 72 20 18 323 202
335 204 4 1 7 -14 7 -32z m1096 -89 l81 -41 6 -141 c2 -78 4 -142 3 -143 -1
-1 -55 29 -121 68 -66 38 -128 69 -137 69 -13 0 -18 -8 -18 -31 l0 -30 -30 18
-30 17 0 133 c0 104 3 133 13 133 8 0 16 -2 19 -6 13 -13 150 -73 140 -62 -6
7 -47 31 -91 53 -80 39 -92 50 -69 73 8 8 28 1 82 -29 39 -22 108 -59 152 -81z
m2714 118 c0 -9 -151 -88 -157 -82 -4 3 -4 7 -2 9 2 1 36 19 74 39 67 36 85
43 85 34z m-317 -68 c67 -35 124 -64 126 -66 3 -1 0 -7 -7 -14 -8 -8 -43 5
-136 53 -69 35 -126 70 -126 77 0 20 17 14 143 -50z m298 14 c-51 -36 -141
-83 -141 -74 0 6 33 28 73 51 73 41 112 54 68 23z m-3354 -14 c-3 -8 -6 -5 -6
6 -1 11 2 17 5 13 3 -3 4 -12 1 -19z m0 -390 c-1 -68 -3 -15 -3 117 0 132 2
187 3 123 2 -64 2 -172 0 -240z m-92 315 l55 -27 0 -63 c0 -35 -4 -63 -10 -63
-5 0 -55 24 -111 54 l-101 54 53 35 c30 20 55 36 56 36 2 1 27 -11 58 -26z
m2885 -232 l0 -159 -92 -54 c-96 -57 -153 -88 -163 -88 -3 0 -5 70 -5 155 0
149 1 155 23 169 25 17 231 136 235 136 1 0 2 -71 2 -159z m-2606 120 c95 -55
116 -92 116 -207 0 -80 15 -128 49 -158 14 -13 21 -31 21 -58 0 -21 -2 -38 -4
-38 -10 0 -211 112 -228 127 -16 14 -18 34 -18 190 0 95 3 173 6 173 4 0 30
-13 58 -29z m1677 -184 c-6 -6 -59 -38 -118 -72 -97 -57 -132 -85 -104 -85 6
0 56 25 112 56 55 31 102 54 103 52 2 -1 6 -20 10 -40 6 -32 3 -41 -16 -59
-36 -33 -251 -150 -261 -140 -4 4 -6 70 -5 146 l3 137 140 83 140 82 3 -75 c2
-42 -2 -80 -7 -85z m237 -23 c-24 -24 -169 -104 -187 -104 -22 0 -10 29 22 51
54 38 67 59 67 119 l0 55 58 31 57 31 3 -80 c3 -73 1 -83 -20 -103z m-1539 89
c30 -17 42 -43 21 -43 -22 0 -70 31 -70 45 0 20 12 19 49 -2z m-1379 2 c0 -5
-84 -55 -94 -55 -15 0 7 21 42 40 37 19 52 24 52 15z m1303 -46 c43 -22 80
-46 83 -53 3 -7 3 -61 2 -120 l-3 -108 -90 47 c-129 67 -125 62 -125 170 0 93
9 120 40 110 8 -3 50 -23 93 -46z m-1259 -15 c-42 -20 -84 -22 -84 -4 0 4 17
18 37 32 35 23 39 24 65 9 l28 -16 -46 -21z m66 -14 c-14 -11 -44 -30 -67 -42
l-43 -23 -46 25 c-65 36 -79 58 -16 26 46 -23 58 -26 85 -16 18 6 43 19 57 30
14 11 32 20 40 20 10 0 7 -7 -10 -20z m1450 -40 l107 -60 6 -68 c9 -86 9 -227
1 -235 -7 -7 -207 96 -236 121 -35 30 -19 42 20 16 l37 -26 3 83 c3 86 -1 109
-18 109 -6 0 -10 -27 -10 -65 0 -64 -4 -72 -26 -57 -10 6 -29 182 -20 182 2 0
48 -27 102 -60 54 -33 104 -60 112 -60 33 0 -2 29 -106 88 -80 45 -110 67
-106 77 4 8 11 15 17 15 6 0 58 -27 117 -60z m-1425 8 c-3 -8 -39 -32 -80 -54
-70 -37 -90 -54 -63 -54 6 0 36 14 66 31 69 39 58 21 -19 -32 -66 -44 -89 -45
-89 -2 0 21 -9 34 -35 51 -25 15 -35 30 -35 47 l0 25 49 -35 c26 -19 57 -35
67 -35 11 0 46 18 79 39 33 21 61 37 63 36 1 -1 0 -9 -3 -17z m2225 -129 c0
-101 3 -134 15 -145 13 -13 5 -20 -62 -55 -43 -22 -83 -37 -90 -35 -15 6 -19
252 -4 275 9 13 120 89 134 90 4 1 7 -58 7 -130z m-1580 49 c0 -32 -7 -37
-163 -133 -89 -55 -211 -128 -272 -163 -98 -56 -144 -84 -262 -154 -30 -18
-32 -18 -48 -1 -17 16 -16 19 22 53 22 19 78 57 124 85 385 228 585 345 591
345 5 0 8 -15 8 -32z m975 -47 c6 -11 8 -401 2 -408 -3 -2 -57 23 -121 57
l-116 62 0 39 0 40 76 -40 c113 -60 114 -58 114 130 0 145 1 149 19 139 11 -5
22 -14 26 -19z m-795 -19 c0 -5 39 -30 88 -57 107 -60 142 -83 142 -96 0 -14
-210 98 -232 123 -20 23 -23 38 -8 38 6 0 10 -4 10 -8z m-182 -151 l-3 -49
-84 43 -85 42 85 50 84 50 3 -43 c2 -24 2 -65 0 -93z m663 4 c29 -19 38 -31
41 -62 3 -21 5 -39 4 -40 -1 -1 -58 28 -126 65 l-125 67 -3 43 -3 42 87 -46
c48 -25 104 -56 125 -69z m2064 34 c-7 -10 -189 -119 -199 -119 -3 0 -6 6 -6
13 1 14 191 128 202 121 5 -3 6 -10 3 -15z m-3582 -2 c40 -17 59 -40 51 -61
-23 -59 -204 -66 -204 -8 0 18 18 32 80 64 41 21 33 21 73 5z m3587 -141 l0
-104 -95 -51 c-53 -28 -100 -51 -105 -51 -6 0 -10 41 -10 99 0 98 0 99 28 110
15 6 59 31 97 56 39 24 73 45 78 45 4 0 7 -47 7 -104z m-2160 -92 c0 -69 5
-134 10 -145 11 -20 79 -59 103 -59 8 0 19 -11 25 -25 6 -14 17 -25 24 -25 10
0 12 33 10 146 l-4 146 44 -26 43 -26 3 -148 3 -149 72 -41 c39 -22 84 -44
100 -48 15 -3 29 -9 31 -13 3 -4 -24 -21 -59 -40 l-64 -33 -155 82 c-86 44
-159 86 -162 92 -5 7 -2 8 6 3 8 -5 11 -3 8 6 -2 8 -35 30 -72 50 -37 20 -72
42 -77 50 -5 8 -9 98 -9 202 l0 187 60 -30 60 -30 0 -126z m1301 -92 c-9 -16
-162 -105 -450 -262 -126 -69 -137 -73 -200 -74 -57 -1 -76 4 -127 30 l-59 31
-3 123 c-2 110 -1 122 14 116 9 -3 42 5 74 20 l58 26 43 -23 c73 -37 119 -31
232 29 l97 53 0 -45 c0 -24 -3 -51 -6 -60 -3 -8 -50 -41 -105 -73 -54 -32 -99
-61 -99 -65 0 -18 32 -5 128 52 110 65 108 63 114 170 l3 44 145 83 145 83 3
-120 c1 -66 -2 -128 -7 -138z m-2696 41 c-6 -51 -7 -53 -61 -79 -63 -31 -100
-27 -114 12 -6 14 -10 68 -10 120 0 86 2 95 18 90 50 -15 91 -16 127 -3 l40
14 3 -51 c2 -28 1 -74 -3 -103z m460 107 c8 0 25 -5 39 -11 25 -12 25 -12 -32
-46 -72 -44 -148 -83 -162 -83 -5 0 -10 22 -10 49 l0 49 73 47 72 46 3 -25 c2
-14 10 -26 17 -26z m1025 20 l40 -20 0 -121 c0 -111 -1 -121 -17 -114 -10 4
-30 12 -45 17 l-28 10 0 124 c0 68 2 124 5 124 3 0 24 -9 45 -20z m-949 -84
c-12 -14 -144 -96 -155 -96 -22 0 5 25 72 64 80 47 103 56 83 32z m1367 -6
c67 -35 67 -35 29 -59 -19 -11 -44 -21 -56 -21 -19 0 -21 6 -21 50 0 28 2 50
5 50 3 0 22 -9 43 -20z m-1653 -78 c-11 -12 -40 15 -43 40 -2 18 3 27 20 35
22 10 23 8 26 -29 2 -22 1 -43 -3 -46z m1510 21 c54 -27 55 -28 55 -70 0 -24
-3 -43 -6 -43 -4 0 -31 14 -60 31 -51 29 -54 33 -54 70 0 21 2 39 5 39 2 0 29
-12 60 -27z m-1695 7 c0 -5 -4 -10 -10 -10 -5 0 -10 5 -10 10 0 6 5 10 10 10
6 0 10 -4 10 -10z m1695 -127 l55 -27 0 -73 0 -73 -42 21 c-72 36 -78 45 -78
116 0 34 2 63 5 63 2 0 29 -12 60 -27z m2141 -129 c29 -30 54 -67 57 -83 6
-31 -8 -97 -23 -106 -7 -4 -222 95 -239 111 -3 2 5 14 16 27 34 37 55 87 51
123 l-4 32 46 -25 c25 -14 68 -50 96 -79z m-1467 -16 c-7 -23 -16 -48 -21 -55
-5 -6 -75 -44 -156 -84 l-147 -74 -110 0 c-94 0 -118 4 -163 24 l-53 24 60 34
60 34 57 -17 c99 -28 143 -18 322 80 86 47 158 83 160 81 2 -1 -2 -23 -9 -47z
m101 -116 c0 -9 -125 -82 -140 -82 -6 0 -30 10 -53 22 l-42 21 71 33 c40 18
75 37 78 43 7 11 86 -23 86 -37z m-1900 -342 c8 -5 11 -10 5 -10 -5 0 -17 5
-25 10 -8 5 -10 10 -5 10 6 0 17 -5 25 -10z"/>
<path d="M4230 4108 c0 -7 10 -19 22 -27 40 -25 320 -181 325 -181 2 0 3 7 1
16 -2 9 -75 57 -163 106 -186 105 -185 104 -185 86z"/>
<path d="M4250 4026 c0 -7 80 -56 91 -56 17 0 -9 29 -42 46 -27 13 -49 18 -49
10z"/>
<path d="M4260 3955 c0 -8 42 -37 95 -66 52 -28 95 -53 95 -55 0 -3 -10 0 -21
7 -17 9 -23 8 -30 -2 -6 -11 -11 -10 -26 2 -10 9 -40 28 -66 43 -46 26 -66 29
-53 8 5 -9 189 -118 254 -152 34 -17 41 -2 12 21 -24 19 -24 20 -2 9 37 -18
50 -5 14 14 -19 10 -32 20 -29 23 3 2 17 -3 31 -13 31 -20 44 -14 19 8 -19 16
-279 168 -288 168 -3 0 -5 -7 -5 -15z m225 -143 c-3 -3 -11 0 -18 7 -9 10 -8
11 6 5 10 -3 15 -9 12 -12z m5 -28 c0 -2 -13 2 -30 11 -16 9 -30 18 -30 21 0
2 14 -2 30 -11 17 -9 30 -18 30 -21z"/>
<path d="M4262 3850 c2 -7 44 -35 93 -62 50 -27 114 -63 143 -79 41 -24 52
-27 52 -15 0 9 -5 16 -10 16 -6 0 -46 20 -88 44 -159 89 -194 107 -190 96z"/>
<path d="M4256 3801 c-8 -13 4 -20 157 -101 131 -68 167 -81 133 -48 -14 15
-268 158 -279 158 -3 0 -8 -4 -11 -9z"/>
<path d="M4254 3741 c4 -5 57 -37 119 -72 61 -34 127 -71 145 -81 32 -20 32
-20 32 1 0 12 -4 21 -8 21 -4 0 -66 31 -137 70 -122 65 -164 82 -151 61z"/>
<path d="M4257 3687 c-3 -8 48 -43 140 -95 80 -46 147 -81 149 -79 13 12 -14
37 -84 74 -42 24 -105 58 -138 78 -44 25 -63 31 -67 22z"/>
<path d="M2578 3618 c-56 -30 -73 -48 -45 -48 12 0 84 46 112 71 19 18 -11 8
-67 -23z"/>
<path d="M2680 3578 c0 -7 -19 -21 -42 -31 -30 -12 -39 -20 -31 -28 8 -8 23
-5 56 9 54 24 64 38 37 52 -15 8 -20 8 -20 -2z"/>
<path d="M2554 3365 c-17 -13 -17 -14 -2 -15 9 0 20 5 23 11 11 17 0 20 -21 4z"/>
<path d="M2431 3300 c-59 -33 -84 -51 -77 -57 5 -5 92 38 121 60 37 28 10 26
-44 -3z"/>
<path d="M2838 3189 c-77 -44 -106 -69 -80 -69 12 0 165 89 182 105 30 31 -14
15 -102 -36z"/>
<path d="M2850 3147 c-52 -29 -96 -58 -98 -66 -3 -7 31 6 75 30 99 55 130 75
123 83 -4 3 -48 -18 -100 -47z"/>
<path d="M2803 3078 c-46 -26 -67 -48 -47 -48 14 0 114 62 114 71 0 14 -11 10
-67 -23z"/>
<path d="M2817 3033 c-49 -30 -71 -53 -51 -53 11 0 92 51 105 66 22 27 4 23
-54 -13z"/>
<path d="M2803 2973 c-38 -21 -56 -43 -37 -43 12 0 94 55 94 63 0 11 -11 7
-57 -20z"/>
<path d="M1885 3168 c-3 -8 -4 -61 -3 -118 2 -79 6 -105 18 -111 8 -5 52 -29
97 -54 45 -25 88 -45 94 -45 18 0 7 217 -12 234 -8 7 -53 35 -102 61 -66 36
-88 43 -92 33z m90 -98 c17 -11 25 -20 18 -20 -19 0 -63 22 -63 32 0 13 13 10
45 -12z m8 -55 c31 -16 57 -33 57 -38 0 -10 -117 49 -126 64 -8 14 -2 12 69
-26z m13 -66 c77 -44 60 -48 -22 -5 -38 19 -61 35 -51 36 9 0 42 -14 73 -31z"/>
<path d="M2385 2780 c6 -10 98 -60 110 -60 3 0 5 4 5 10 0 10 -91 60 -110 60
-6 0 -8 -5 -5 -10z"/>
<path d="M2370 2731 c0 -12 83 -81 99 -81 16 0 14 15 -6 32 -33 27 -93 60 -93
49z"/>
<path d="M4018 2599 c-49 -28 -88 -55 -88 -60 0 -14 7 -11 56 17 24 14 44 24
44 21 0 -3 -20 -17 -45 -31 -25 -15 -45 -32 -45 -37 0 -11 63 22 138 73 44 30
54 45 25 34 -11 -4 -8 2 7 14 47 37 -3 21 -92 -31z m62 6 c0 -2 -10 -9 -22
-15 -22 -11 -22 -10 -4 4 21 17 26 19 26 11z"/>
<path d="M4025 2519 c-71 -44 -101 -69 -79 -69 10 0 163 90 169 100 15 24 -18
12 -90 -31z"/>
<path d="M4021 2461 c-70 -43 -87 -58 -79 -66 3 -3 41 15 84 41 95 57 104 64
79 64 -11 -1 -49 -18 -84 -39z"/>
<path d="M4025 2403 c-16 -8 -39 -23 -49 -32 -11 -9 -16 -10 -12 -3 4 7 2 12
-7 12 -10 0 -14 -9 -13 -25 0 -14 3 -24 6 -22 32 15 120 73 120 79 0 11 -11 9
-45 -9z"/>
<path d="M1730 2456 c0 -70 7 -99 21 -90 10 6 12 97 3 132 -12 43 -24 21 -24
-42z"/>
<path d="M2104 2307 c-3 -8 -4 -41 -2 -73 3 -54 6 -60 37 -81 19 -13 39 -22
45 -20 14 5 19 50 11 102 -5 35 -12 45 -45 64 -33 18 -41 20 -46 8z m56 -47
c6 -12 10 -37 8 -56 -3 -34 -4 -34 -25 -19 -17 12 -23 26 -23 56 0 44 21 54
40 19z"/>
<path d="M2861 2343 c-20 -16 -22 -26 -19 -107 2 -60 7 -91 16 -94 9 -3 12 19
12 89 0 72 4 96 17 111 21 23 2 24 -26 1z"/>
<path d="M910 2145 c-82 -50 -94 -60 -86 -73 9 -14 156 74 156 94 0 19 -6 17
-70 -21z"/>
<path d="M403 2153 c-34 -17 -45 -43 -18 -43 22 0 95 39 95 50 0 15 -41 11
-77 -7z"/>
<path d="M3955 2069 c-44 -27 -81 -56 -83 -64 -2 -8 0 -15 5 -15 15 0 168 105
171 118 3 18 -6 14 -93 -39z"/>
<path d="M3953 1992 c-46 -26 -83 -53 -83 -60 0 -9 18 -3 53 18 28 17 69 39
89 48 21 9 38 23 38 30 0 19 -9 15 -97 -36z"/>
<path d="M3955 1949 c-33 -21 -66 -39 -72 -39 -7 0 -13 -7 -13 -15 0 -8 4 -15
10 -15 18 0 149 85 150 98 0 18 -9 14 -75 -29z"/>
<path d="M2040 1633 c0 -5 23 -20 50 -34 28 -15 50 -23 50 -18 0 5 -22 20 -50
34 -27 14 -50 22 -50 18z"/>
<path d="M398 1905 c-3 -76 -1 -85 15 -85 15 0 17 11 17 85 0 67 -3 85 -14 85
-11 0 -15 -20 -18 -85z"/>
<path d="M450 1920 c0 -40 4 -70 10 -70 6 0 10 30 10 70 0 40 -4 70 -10 70 -6
0 -10 -30 -10 -70z"/>
<path d="M839 1960 c-13 -10 -19 -19 -12 -20 6 0 15 5 18 10 4 6 10 8 14 5 5
-2 17 2 27 10 18 14 18 14 -2 15 -12 0 -32 -9 -45 -20z"/>
<path d="M2922 4278 c-31 -31 -6 -75 59 -102 41 -17 59 -8 59 29 0 25 -20 45
-67 69 -38 19 -36 19 -51 4z m62 -39 c14 -11 26 -27 26 -35 0 -11 -6 -11 -35
3 -21 10 -35 24 -35 35 0 23 11 23 44 -3z"/>
<path d="M3392 4228 c-9 -9 -12 -74 -12 -230 0 -261 -13 -236 171 -328 173
-86 197 -114 147 -167 -31 -33 -11 -28 50 12 47 32 68 65 42 65 -5 0 -10 5
-10 10 0 6 47 -15 105 -46 152 -81 145 -89 145 165 0 203 0 208 -23 229 -22
21 -272 158 -459 253 -100 50 -135 58 -156 37z m305 -154 c142 -75 268 -142
281 -150 22 -14 22 -19 22 -200 0 -152 -3 -186 -15 -190 -8 -3 -59 18 -115 47
-99 52 -100 53 -100 89 0 23 -7 43 -17 52 -19 16 -246 138 -257 138 -3 0 -6
-6 -6 -14 0 -8 54 -42 121 -76 132 -69 139 -77 139 -158 l0 -47 -23 27 c-12
14 -86 58 -164 97 -77 39 -144 79 -147 88 -9 23 -20 397 -13 417 4 9 13 16 21
16 8 0 131 -61 273 -136z"/>
<path d="M3720 4225 c-7 -8 -10 -22 -6 -30 7 -18 65 -55 88 -55 46 0 26 50
-31 80 -34 17 -41 17 -51 5z m57 -41 l28 -25 -32 15 c-33 16 -52 36 -34 36 5
0 23 -11 38 -26z"/>
<path d="M859 4070 c-92 -49 -170 -178 -177 -292 -5 -77 1 -110 24 -132 26
-26 34 -18 18 19 -7 19 -14 63 -14 97 0 115 87 253 186 294 36 15 46 34 17 34
-10 -1 -34 -9 -54 -20z"/>
<path d="M930 4049 c-107 -43 -200 -185 -200 -309 0 -45 36 -118 72 -143 108
-79 290 80 305 267 11 135 -76 225 -177 185z m97 -41 c54 -26 68 -128 31 -225
-27 -74 -109 -158 -162 -168 -82 -16 -130 36 -129 142 1 77 30 140 94 205 62
62 106 74 166 46z"/>
<path d="M1870 3958 c-1 -62 -6 -101 -15 -118 -19 -33 -19 -51 0 -44 12 5 15
-4 16 -42 0 -27 4 -69 8 -94 7 -37 9 -27 10 57 1 87 3 101 16 97 10 -4 15 0
15 15 0 12 -7 24 -15 27 -12 5 -15 26 -15 100 0 56 -4 94 -10 94 -6 0 -10 -38
-10 -92z"/>
<path d="M1565 3989 c-14 -21 -17 -126 -6 -147 13 -24 139 -92 170 -92 19 0
21 -8 24 -112 2 -86 3 -70 5 64 1 97 -2 188 -7 202 -6 15 -34 38 -74 60 -65
37 -101 45 -112 25z m95 -52 l55 -32 3 -63 3 -63 -71 36 -70 35 0 53 c0 79 4
80 80 34z"/>
<path d="M511 3501 c-101 -60 -193 -119 -205 -130 -20 -21 -21 -32 -24 -291
-3 -259 -2 -270 17 -289 13 -13 27 -18 38 -14 45 17 380 216 396 234 15 19 17
49 17 288 0 225 -2 270 -16 289 -8 12 -21 22 -27 22 -7 0 -95 -49 -196 -109z
m209 -202 c0 -231 -2 -257 -17 -271 -31 -28 -367 -217 -375 -212 -4 3 -8 122
-8 264 l0 259 33 24 c17 13 73 48 122 77 50 29 122 72 160 95 46 28 72 38 77
31 4 -6 8 -126 8 -267z"/>
<path d="M657 3522 c-21 -23 -21 -32 -1 -32 20 0 47 27 39 40 -9 15 -20 12
-38 -8z"/>
<path d="M534 3461 c-110 -60 -184 -110 -184 -126 0 -9 47 14 128 62 140 83
148 88 135 96 -5 3 -40 -11 -79 -32z"/>
<path d="M539 3388 c-175 -99 -193 -111 -188 -124 2 -6 74 29 159 78 85 49
161 93 169 97 7 5 12 13 10 20 -2 6 -64 -23 -150 -71z"/>
<path d="M530 3329 c-159 -93 -189 -114 -177 -125 3 -4 35 12 70 35 35 22 66
41 70 41 4 0 7 -52 7 -115 0 -63 2 -115 4 -115 3 0 43 23 90 51 99 59 107 86
10 32 -86 -47 -95 -35 -10 13 l66 38 0 98 c0 87 2 98 20 108 20 11 28 30 12
30 -4 0 -77 -41 -162 -91z m90 -133 c-12 -12 -14 47 -2 120 7 47 7 46 10 -30
2 -46 -2 -84 -8 -90z m-25 37 c-3 -29 -11 -55 -16 -58 -14 -9 -11 139 4 154
16 16 21 -23 12 -96z m-45 -8 c0 -43 -4 -75 -10 -75 -6 0 -10 32 -10 75 0 43
4 75 10 75 6 0 10 -32 10 -75z"/>
<path d="M423 3193 c-18 -9 -33 -20 -33 -25 0 -4 -6 -5 -14 -2 -17 7 -26 -36
-26 -127 0 -55 3 -69 15 -69 8 0 15 6 15 14 0 8 18 25 40 37 22 13 40 26 40
31 0 11 -2 10 -43 -7 -48 -20 -41 3 8 29 19 11 35 23 35 28 0 14 -16 9 -44
-13 -24 -19 -26 -19 -26 -2 0 11 17 27 40 41 22 12 40 27 40 33 0 6 -16 1 -36
-11 -19 -12 -38 -19 -42 -15 -4 4 2 12 12 19 31 18 72 55 61 55 -5 0 -25 -8
-42 -16z"/>
<path d="M617 3072 c-37 -20 -63 -38 -58 -40 14 -5 131 56 131 68 0 13 5 15
-73 -28z"/>
<path d="M622 3039 c-29 -17 -51 -33 -48 -36 5 -6 93 45 102 58 8 13 4 12 -54
-22z"/>
<path d="M403 2954 c-24 -14 -43 -30 -43 -35 0 -11 63 23 90 48 23 21 -2 15
-47 -13z"/>
<path d="M365 2889 c-11 -17 1 -21 15 -4 8 9 8 15 2 15 -6 0 -14 -5 -17 -11z"/>
<path d="M3235 3561 c-3 -11 -3 -31 1 -45 5 -23 3 -26 -20 -26 -25 0 -26 -3
-26 -52 0 -124 14 -338 22 -338 4 0 8 41 8 90 l0 90 90 -45 c96 -48 105 -51
105 -34 0 7 -45 35 -100 64 l-100 52 0 66 c0 47 3 67 12 67 7 0 15 -11 19 -24
3 -13 18 -30 32 -37 15 -7 51 -28 80 -46 29 -18 59 -33 67 -33 19 0 29 41 21
84 -5 28 -15 38 -49 55 -52 25 -57 26 -57 5 0 -21 43 -60 48 -44 7 19 32 -10
32 -36 0 -13 -2 -24 -5 -24 -10 0 -141 75 -147 84 -4 6 -8 41 -8 79 0 64 -12
88 -25 48z"/>
<path d="M3300 3546 c0 -25 4 -36 15 -36 9 0 15 9 15 24 0 13 -7 29 -15 36
-13 11 -15 7 -15 -24z"/>
<path d="M1037 3503 c-9 -8 -9 -296 -1 -317 12 -30 10 -31 302 141 50 30 92
61 92 68 0 14 -16 6 -249 -129 -62 -36 -115 -66 -117 -66 -2 0 -4 70 -4 155 0
142 -4 168 -23 148z"/>
<path d="M1359 3482 c-55 -33 -79 -51 -79 -63 0 -16 21 -10 50 14 15 12 42 30
59 39 17 9 31 22 31 28 0 15 -10 12 -61 -18z"/>
<path d="M3052 3409 c2 -7 10 -15 17 -17 8 -3 12 1 9 9 -2 7 -10 15 -17 17 -8
3 -12 -1 -9 -9z"/>
<path d="M3837 3363 c-10 -9 -8 -159 2 -208 8 -34 9 -28 10 42 l1 83 39 -20
c49 -26 71 -18 71 25 0 29 -6 37 -44 59 -45 26 -67 32 -79 19z m69 -44 c35
-21 41 -33 24 -44 -14 -9 -80 33 -80 51 0 20 17 18 56 -7z"/>
<path d="M3315 3300 c9 -15 105 -62 105 -52 0 8 -91 62 -104 62 -4 0 -4 -5 -1
-10z"/>
<path d="M827 3224 c-4 -4 -7 -16 -7 -26 0 -14 6 -19 23 -16 14 2 22 10 22 23
0 20 -25 32 -38 19z"/>
<path d="M3562 3169 c2 -7 55 -40 118 -73 62 -32 111 -54 109 -47 -3 7 -56 40
-118 73 -62 33 -112 55 -109 47z"/>
<path d="M965 3029 c-12 -19 5 -23 22 -6 16 16 16 17 1 17 -9 0 -20 -5 -23
-11z"/>
<path d="M2190 2685 c0 -8 202 -107 207 -101 2 2 -37 27 -89 55 -85 46 -118
59 -118 46z"/>
<path d="M4653 2454 c-8 -21 13 -42 28 -27 13 13 5 43 -11 43 -6 0 -13 -7 -17
-16z"/>
<path d="M4660 2361 c0 -28 5 -53 10 -56 6 -4 10 15 10 49 0 31 -4 56 -10 56
-5 0 -10 -22 -10 -49z"/>
<path d="M4371 2175 c-69 -43 -79 -53 -59 -60 10 -4 39 9 72 31 50 33 60 36
101 31 47 -7 60 4 26 23 -35 18 -84 9 -140 -25z"/>
<path d="M4127 2163 c-11 -10 -8 -133 3 -133 6 0 10 30 10 70 0 70 -1 76 -13
63z"/>
<path d="M4590 2152 c0 -15 92 -54 103 -43 6 6 -5 17 -31 30 -43 22 -72 27
-72 13z"/>
<path d="M4367 2034 c-76 -47 -107 -71 -105 -83 4 -19 153 -100 186 -101 22 0
221 112 233 132 9 13 49 -8 49 -26 0 -8 6 -19 14 -25 12 -10 13 -8 7 15 -5 21
-30 39 -126 90 -65 35 -126 64 -134 64 -9 -1 -65 -30 -124 -66z m199 -1 c41
-21 74 -40 74 -43 0 -8 -174 -110 -188 -110 -7 0 -45 16 -84 36 l-71 36 44 27
c24 15 67 41 94 58 28 18 52 32 54 32 2 1 37 -16 77 -36z"/>
<path d="M3435 1944 c-99 -58 -115 -71 -115 -99 0 -42 29 -37 133 22 103 60
117 74 100 102 -17 27 -35 23 -118 -25z m76 -3 c-33 -25 -169 -97 -155 -82 17
18 169 110 174 104 3 -2 -6 -13 -19 -22z"/>
<path d="M1165 1951 c-9 -16 3 -31 26 -31 14 0 19 6 17 17 -4 20 -33 29 -43
14z"/>
<path d="M1193 1748 c-99 -57 -157 -97 -149 -105 3 -3 58 25 123 62 l117 68
63 -32 63 -31 0 -119 c0 -154 5 -178 44 -202 45 -28 53 -23 17 10 l-31 29 0
145 0 145 -47 27 c-107 59 -101 59 -200 3z"/>
<path d="M3480 1532 c-47 -27 -135 -80 -195 -117 -61 -37 -152 -92 -203 -123
-96 -58 -120 -89 -91 -117 8 -7 72 -43 143 -80 103 -53 136 -66 161 -62 46 8
557 310 575 340 25 44 4 66 -126 136 -65 34 -132 65 -148 68 -24 3 -51 -7
-116 -45z m253 -49 c128 -69 135 -53 -82 -177 -80 -46 -163 -93 -183 -106 -21
-12 -38 -18 -38 -13 0 9 199 130 275 167 44 21 47 24 29 34 -15 8 -25 5 -49
-14 -17 -13 -39 -24 -50 -24 -18 0 -18 2 5 20 14 11 30 20 37 20 6 0 15 5 18
11 5 7 -5 8 -29 4 -24 -5 -36 -4 -36 4 0 6 -9 15 -21 19 -21 8 -21 9 6 26 26
17 27 17 20 -3 -9 -30 34 -39 74 -15 17 10 31 21 31 25 0 12 -58 31 -71 23 -7
-4 -10 -3 -6 3 9 15 -71 53 -92 45 -9 -4 -102 -59 -208 -122 -202 -121 -207
-127 -137 -150 32 -11 39 -8 146 56 62 37 116 69 121 71 4 2 7 -1 7 -6 0 -6
-5 -11 -10 -11 -6 0 -59 -30 -118 -66 -197 -122 -233 -147 -224 -156 6 -6 22
-4 40 6 17 9 37 16 44 16 7 -1 -2 -9 -21 -19 l-33 -18 37 -22 c40 -23 66 -21
100 9 24 21 87 60 98 60 21 0 2 -19 -39 -39 -32 -15 -44 -25 -37 -32 8 -8 17
-7 32 0 12 7 21 9 21 7 0 -12 -48 -29 -92 -33 -41 -3 -62 4 -169 57 -66 34
-118 64 -114 68 10 10 117 77 350 217 162 97 216 125 235 121 14 -3 74 -31
133 -63z m-153 -58 c0 -6 -56 -35 -67 -35 -4 1 8 9 27 20 39 22 40 22 40 15z
m7 -51 c-16 -8 -34 -13 -40 -11 -7 3 -1 9 13 15 38 16 59 13 27 -4z m258 8
c-15 -14 -131 -76 -122 -66 12 13 110 72 122 73 5 1 5 -2 0 -7z m-325 -42 c-8
-5 -24 -10 -35 -10 -17 0 -17 2 -5 10 8 5 24 10 35 10 17 0 17 -2 5 -10z m90
3 c-1 -14 -113 -74 -130 -70 -9 2 3 12 30 25 25 12 54 29 64 37 21 16 36 19
36 8z m-160 -43 c0 -13 -28 -25 -38 -16 -3 4 0 11 8 16 20 13 30 12 30 0z
m260 6 c0 -3 -179 -111 -240 -145 -65 -35 8 14 114 78 117 70 126 75 126 67z
m-326 -45 c3 -5 -1 -12 -10 -15 -20 -8 -29 -1 -19 13 8 13 22 14 29 2z m67 -8
c-19 -4 -21 -7 -10 -15 12 -8 12 -9 0 -6 -8 2 -24 -6 -37 -19 -13 -13 -31 -23
-41 -23 -20 0 -13 8 37 44 19 13 44 24 55 24 15 -1 14 -2 -4 -5z m-124 -30
c-9 -9 -20 -13 -24 -9 -4 4 -1 11 7 16 25 16 35 11 17 -7z m-51 -29 c-19 -14
-56 -20 -43 -8 12 12 52 31 57 27 3 -3 -4 -11 -14 -19z m59 -25 c-4 -5 -16 -9
-28 -9 -21 1 -21 1 -3 15 20 15 41 11 31 -6z m-47 -28 c10 -6 8 -10 -10 -14
-41 -12 -54 -8 -32 8 22 17 25 17 42 6z m152 4 c0 -2 -10 -9 -22 -15 -22 -11
-22 -10 -4 4 21 17 26 19 26 11z"/>
<path d="M3730 1435 l-24 -13 31 -16 c29 -15 33 -14 54 3 l22 18 -29 10 c-22
8 -37 7 -54 -2z"/>
<path d="M3100 1249 c-25 -16 -46 -34 -48 -39 -2 -5 14 -18 34 -28 l38 -19 48
29 c26 16 50 33 53 38 5 8 -59 51 -73 49 -4 0 -27 -14 -52 -30z"/>
<path d="M950 1515 c0 -4 5 -15 11 -26 7 -14 16 -18 30 -14 12 4 27 1 37 -8
18 -16 239 -127 253 -127 32 0 -7 28 -113 81 -68 34 -127 67 -133 74 -10 13
-85 31 -85 20z"/>
<path d="M4065 1454 c-57 -29 -95 -56 -95 -66 0 -8 101 43 124 63 18 16 0 18
-29 3z"/>
<path d="M1517 1284 c-84 -50 -99 -73 -74 -119 20 -40 310 -189 351 -181 40 8
196 105 196 122 0 8 2 14 3 14 2 0 124 -58 270 -130 147 -71 274 -130 283
-130 38 0 -2 25 -151 96 -88 42 -296 143 -462 225 -166 82 -310 149 -320 149
-10 0 -53 -21 -96 -46z m127 8 c3 -4 -15 -19 -40 -32 -43 -24 -56 -40 -33 -40
7 0 27 9 45 21 19 11 42 19 51 17 13 -3 8 -9 -19 -23 -39 -19 -46 -29 -28 -40
10 -6 72 31 78 47 7 15 27 7 125 -46 l99 -53 -65 -37 -65 -36 -120 70 c-125
73 -182 94 -182 69 0 -13 275 -169 298 -169 7 0 46 20 88 45 42 25 79 43 82
40 8 -7 -22 -28 -105 -72 l-71 -38 -134 67 c-208 103 -212 110 -107 178 60 39
92 49 103 32z"/>
<path d="M1750 1185 c0 -2 17 -13 38 -24 20 -11 33 -20 29 -21 -4 0 -22 7 -38
16 -31 15 -51 12 -33 -6 5 -5 25 -16 44 -24 29 -12 39 -12 60 -1 24 13 24 13
-28 39 -49 25 -72 32 -72 21z"/>
<path d="M439 1237 c-82 -51 -84 -53 -84 -92 0 -38 2 -41 65 -77 87 -51 115
-50 212 9 80 48 94 67 84 108 -7 26 -137 105 -173 105 -11 0 -58 -24 -104 -53z
m177 -9 l56 -31 -22 -17 c-13 -10 -47 -30 -76 -46 l-52 -28 -54 28 c-29 16
-57 32 -61 36 -9 8 120 90 141 90 7 0 37 -14 68 -32z m54 -88 c-14 -11 -53
-34 -88 -51 l-62 -32 -67 34 c-37 19 -68 40 -71 47 -2 7 28 -4 68 -25 l73 -37
76 41 c82 45 111 54 71 23z"/>
<path d="M557 1189 c-24 -14 -11 -32 14 -19 10 6 19 15 19 20 0 13 -10 12 -33
-1z"/>
<path d="M3150 946 c-166 -95 -312 -131 -482 -119 -60 4 -88 3 -88 -5 0 -18
38 -24 149 -24 111 0 219 19 300 54 67 29 241 129 241 139 0 18 -27 8 -120
-45z"/>
</g>
</svg>