<?xml version="1.0" standalone="no"?>
<!DOCTYPE svg PUBLIC "-//W3C//DTD SVG 20010904//EN"
 "http://www.w3.org/TR/2001/REC-SVG-20010904/DTD/svg10.dtd">
<svg version="1.0" xmlns="http://www.w3.org/2000/svg"
 width="512.000000pt" height="512.000000pt" viewBox="0 0 512.000000 512.000000"
 preserveAspectRatio="xMidYMid meet">
<metadata>
Created by potrace 1.16, written by Peter Selinger 2001-2019
</metadata>
<g transform="translate(0.000000,512.000000) scale(0.100000,-0.100000)"
fill="#000000" stroke="none">
<path d="M0 4747 c0 -8 9 -21 19 -28 55 -40 461 -373 461 -379 0 -3 -80 9
-177 26 -98 18 -207 36 -243 40 -124 13 -51 -8 152 -42 111 -20 218 -38 235
-41 l33 -6 2 -886 c2 -487 2 -888 1 -890 -1 -2 -14 6 -30 17 -49 34 -133 73
-144 66 -15 -9 -2 -125 23 -198 10 -33 35 -90 53 -128 19 -38 31 -68 27 -66
-44 23 -125 58 -134 58 -19 0 -1 -97 27 -149 15 -26 46 -69 71 -94 24 -25 44
-48 44 -51 0 -3 -15 0 -32 5 -53 15 -76 11 -94 -16 -20 -30 -13 -83 16 -117
l20 -23 -16 33 c-18 37 -15 67 6 67 10 0 17 -14 20 -45 l5 -45 44 0 c42 0 46
-3 72 -45 36 -58 48 -120 25 -120 -10 0 -31 -7 -48 -16 l-31 -16 5 -72 5 -73
-209 -118 c-174 -99 -229 -135 -204 -135 2 0 96 52 209 115 114 63 208 115
210 115 4 0 10 -21 19 -73 2 -14 -36 -44 -157 -123 -88 -57 -188 -121 -222
-142 -35 -20 -63 -43 -63 -49 0 -7 2 -13 5 -13 3 0 105 65 227 144 l222 145
22 -25 c20 -21 32 -24 94 -24 102 0 135 17 166 85 l25 55 85 0 c80 0 84 -1 84
-22 0 -13 9 -38 20 -56 18 -29 24 -32 70 -32 55 0 85 20 96 65 3 14 9 23 13
21 4 -3 71 -6 148 -7 l141 -2 88 48 c49 26 91 51 94 55 8 13 370 25 370 12 0
-6 -17 -16 -38 -21 -47 -13 -70 -30 -74 -56 -2 -14 2 -19 15 -17 20 3 22 -10
5 -37 -15 -25 4 -51 38 -51 30 0 42 35 20 59 -14 15 -22 41 -13 41 2 0 46 9
97 20 51 11 98 20 103 20 5 0 7 -14 3 -32 -4 -21 -3 -28 3 -19 6 10 10 10 16
1 4 -6 -3 -22 -15 -35 -27 -29 -20 -65 14 -65 35 0 52 25 38 55 -7 14 -8 25
-4 25 5 0 16 6 26 13 13 10 15 18 8 38 l-10 25 87 -18 c148 -30 149 -30 111
-68 -16 -16 -18 -25 -10 -40 14 -25 32 -25 55 0 17 19 17 21 2 38 -10 10 -17
28 -17 40 0 11 -8 23 -17 26 -10 2 -63 17 -118 32 -55 15 -104 31 -109 36 -20
17 34 7 142 -27 109 -35 112 -36 112 -65 0 -31 14 -41 23 -16 12 30 -18 59
-83 82 l-65 22 137 1 138 1 2 -297 3 -298 301 -3 c166 -1 319 2 340 7 27 6
-47 9 -238 10 l-278 1 0 190 0 190 360 0 360 0 0 -189 c0 -105 4 -192 8 -195
12 -7 726 -20 754 -13 24 6 25 10 21 51 l-6 45 94 3 94 3 3 168 c2 148 4 168
18 163 9 -3 22 -6 29 -6 9 0 16 -19 20 -55 6 -43 13 -60 35 -79 48 -40 190
-46 247 -10 11 7 29 33 38 57 l17 45 141 -97 c178 -122 167 -115 167 -97 0 8
-66 58 -150 113 l-149 98 -1 282 c0 192 3 284 11 289 8 4 10 -57 7 -214 l-3
-220 60 -31 c33 -17 98 -51 144 -77 68 -39 82 -43 79 -28 -2 10 -24 30 -50 44
-66 36 -74 48 -11 16 57 -28 63 -30 63 -18 0 5 -55 37 -122 72 l-123 63 1 199
c1 110 5 203 10 208 5 5 40 25 77 43 l67 33 -22 21 c-13 12 -30 23 -38 26 -8
2 -3 3 13 1 20 -3 27 1 27 13 0 14 -10 15 -70 10 l-70 -6 0 90 0 89 -31 0
c-18 0 -28 4 -24 10 4 6 15 8 26 5 13 -5 17 -2 14 7 -4 9 4 14 25 16 19 2 29
-2 25 -8 -3 -5 -13 -10 -21 -10 -8 0 -14 -4 -14 -10 0 -5 6 -10 14 -10 18 0
98 88 91 100 -3 6 -28 10 -56 10 -43 0 -49 3 -49 21 0 11 -4 17 -10 14 -6 -3
-10 -1 -10 5 0 6 6 10 13 8 25 -6 110 79 168 166 32 49 59 93 59 96 0 10 -130
19 -178 13 l-42 -6 0 626 1 626 124 66 c76 40 125 72 125 82 0 10 -36 -4 -124
-51 -69 -36 -127 -66 -130 -66 -24 0 13 25 124 85 72 38 130 75 130 82 0 7
-48 -13 -116 -49 -63 -33 -118 -57 -122 -53 -4 4 -7 82 -7 175 l0 168 122 89
c74 53 123 95 123 105 0 12 -39 -11 -132 -79 l-131 -96 -179 -1 c-98 -1 -178
0 -178 1 0 1 36 21 80 44 45 23 79 44 76 46 -2 2 -45 -16 -95 -41 l-91 -46
-2017 0 -2018 0 -210 171 c-242 197 -225 184 -225 166z m860 -392 l0 -35 -180
0 c-169 0 -180 1 -180 19 0 10 -10 26 -22 34 -21 15 -7 16 180 16 l202 1 0
-35z m3753 28 l187 -6 0 -562 0 -561 -37 -18 c-81 -38 -176 -130 -195 -188 -2
-5 -23 3 -46 18 l-42 28 0 623 0 623 25 10 c30 11 32 20 6 20 -11 0 -32 -11
-48 -24 -16 -14 -40 -26 -54 -27 -13 -1 -813 -1 -1776 -1 l-1753 2 0 35 0 35
1773 0 c974 0 1856 -3 1960 -7z m227 -564 c0 -377 -3 -568 -10 -564 -6 4 -10
205 -10 571 0 369 3 564 10 564 7 0 10 -197 10 -571z m-383 -715 c-2 -2 -13
-1 -26 3 l-23 6 4 585 c4 563 5 585 24 599 19 14 19 4 22 -588 1 -331 1 -604
-1 -605z m-3599 862 c2 -300 1 -328 -14 -322 -9 3 -74 29 -145 57 -70 29 -135
49 -143 46 -14 -6 -16 -76 -16 -627 0 -419 -3 -620 -10 -620 -6 0 -13 6 -15
13 -2 6 -6 409 -7 894 -3 778 -1 883 12 886 8 2 87 4 175 3 l160 -1 3 -329z
m282 -512 c0 -739 -2 -843 -15 -848 -13 -5 -15 53 -15 484 l0 490 -90 0 c-82
0 -91 2 -115 25 l-25 26 0 333 0 334 130 -1 130 -1 0 -842z m3083 838 l167 -2
0 -1176 c0 -1116 -1 -1176 -17 -1169 -46 18 -255 85 -267 85 -13 0 -52 78 -43
86 2 2 43 -3 91 -12 48 -9 90 -14 93 -10 8 8 70 436 64 441 -2 3 -17 5 -33 5
l-28 0 0 129 c0 72 -4 132 -8 135 -11 7 -96 7 -164 0 -54 -5 -58 -4 -58 15 0
20 -5 21 -101 21 -86 0 -105 -3 -126 -20 -33 -25 -133 -29 -133 -5 0 8 -3 15
-7 15 -5 0 -37 3 -72 5 -56 4 -64 2 -68 -15 -3 -10 -11 -21 -19 -24 -11 -4
-14 -33 -14 -136 l0 -130 -130 0 c-118 0 -130 -2 -140 -19 -5 -11 -10 -31 -10
-45 0 -24 -1 -25 -99 -28 -74 -2 -97 0 -90 9 5 6 9 51 7 100 l-3 88 -177 3
-178 2 0 194 c0 107 -3 201 -6 210 -5 13 -35 14 -222 10 -119 -3 -220 -8 -224
-10 -4 -3 -8 -99 -8 -215 l0 -209 101 0 102 0 -7 -87 c-3 -49 -9 -123 -12
-165 l-7 -78 107 0 106 0 0 -29 0 -30 -149 -3 -150 -3 -11 44 c-15 60 -46 118
-69 131 -11 5 -58 10 -105 10 l-86 0 0 30 0 30 62 0 c73 0 98 17 98 66 0 65 5
64 -375 64 -265 0 -344 -3 -348 -12 -3 -7 -6 -3 -6 10 -1 22 -1 22 177 23 177
1 239 7 214 23 -7 4 -21 5 -31 1 -25 -8 -32 4 -33 57 0 37 -5 46 -26 56 -31
15 -191 16 -193 2 -1 -5 -3 -14 -4 -20 -1 -5 -3 -18 -4 -29 0 -10 -10 -21 -21
-24 -12 -3 -20 -14 -20 -25 0 -17 -7 -21 -37 -24 -33 -3 -38 -7 -41 -30 -2
-20 -9 -28 -23 -28 -17 0 -19 8 -19 78 0 102 -18 142 -63 142 -46 0 -93 -15
-118 -39 l-21 -20 23 6 c13 3 29 10 36 15 24 19 33 -4 33 -90 0 -67 -3 -83
-12 -74 -7 7 -20 12 -29 12 -17 0 -29 27 -29 68 0 12 -4 22 -10 22 -5 0 -10
-13 -10 -29 0 -35 -9 -61 -21 -61 -5 0 -9 47 -9 104 l0 103 70 6 c38 3 85 3
105 0 l35 -6 -11 34 c-7 19 -22 48 -34 64 -19 26 -23 48 -28 153 l-6 122 249
0 250 0 0 -190 0 -190 -192 0 -193 0 -28 58 c-25 51 -27 68 -27 160 l0 102
154 0 153 0 7 -57 c4 -31 3 -60 -1 -64 -4 -4 -24 -9 -43 -12 -19 -2 1 -4 45
-4 44 0 65 2 48 4 l-33 4 0 70 0 69 -169 0 -170 0 -3 -107 c-3 -98 -1 -112 21
-151 13 -23 21 -51 18 -61 -4 -17 9 -18 199 -24 111 -4 208 -5 216 -2 10 4 12
46 10 205 l-3 200 -259 0 -260 0 -2 -57 c-1 -32 -1 -67 0 -78 2 -34 -8 -66
-19 -59 -6 3 -21 3 -35 0 -19 -5 -24 -13 -24 -39 0 -17 -9 -45 -20 -62 l-20
-30 0 707 0 708 293 2 c325 3 2507 3 2770 0z m-3516 -613 c224 -89 226 -100 3
-24 -74 25 -141 48 -148 50 -14 5 -7 25 8 25 6 0 67 -23 137 -51z m-78 -20
l41 -12 0 -167 0 -167 -31 -7 c-17 -3 -42 -6 -55 -6 l-24 0 0 191 c0 159 2
190 14 186 8 -3 32 -11 55 -18z m116 -43 l35 -15 -2 -133 c-2 -132 -2 -132 -5
-28 -4 102 -9 119 -40 120 -10 0 -13 -32 -13 -125 0 -104 -2 -125 -15 -125
-13 0 -15 24 -15 160 0 103 4 160 10 160 6 0 26 -7 45 -14z m89 -29 c15 -11
17 -26 14 -110 l-3 -97 46 -6 c43 -6 45 -7 41 -35 -2 -16 -7 -29 -11 -29 -3 1
-33 6 -66 13 l-60 13 -3 132 c-3 139 1 149 42 119z m52 -29 c-5 9 17 12 98 12
l106 0 0 -160 0 -160 -51 0 c-78 0 -91 11 -87 73 l3 51 -47 14 -48 13 0 86 c0
79 1 84 17 72 11 -10 14 -10 9 -1z m-20 -250 c44 -8 64 -16 64 -26 0 -10 -7
-12 -23 -8 -12 3 -46 10 -75 16 -28 7 -52 16 -52 21 0 12 10 11 86 -3z m-6
-48 l105 -19 -85 5 c-47 3 -137 11 -200 18 l-115 14 95 0 c53 1 141 -8 200
-18z m-145 -20 c50 -5 96 -10 103 -10 9 0 12 -37 12 -150 0 -136 -7 -177 -24
-135 -6 16 2 219 10 243 3 10 -15 12 -79 10 l-82 -3 0 -138 0 -137 -47 0 -48
0 0 170 0 171 33 -6 c17 -3 73 -10 122 -15z m4105 -23 c0 -13 -12 -34 -27 -48
-14 -13 -24 -19 -20 -14 3 6 2 17 -4 25 -6 11 -9 9 -9 -11 0 -15 -7 -32 -15
-39 -12 -10 -15 -10 -15 0 0 21 -13 2 -16 -23 -1 -12 -3 -25 -3 -29 -2 -20
-20 -5 -24 20 -2 15 -3 8 -1 -15 4 -49 -11 -58 -21 -13 -4 16 -11 32 -16 35
-14 9 -11 -26 7 -79 9 -26 14 -49 12 -52 -3 -2 -17 14 -32 37 -36 53 -44 45
-11 -12 13 -24 25 -51 25 -59 0 -8 -7 -1 -16 15 -8 17 -26 42 -40 56 l-24 25
29 41 c34 46 97 100 161 137 55 32 60 32 60 3z m-3730 -132 l0 -145 -122 2
-123 2 90 6 c63 4 83 9 68 14 -14 5 -23 17 -23 28 0 18 -6 20 -50 16 l-50 -3
0 107 0 107 98 4 c53 1 100 4 105 5 4 1 7 -63 7 -143z m-220 25 c0 -60 -4
-110 -9 -110 -4 0 -11 37 -14 83 -10 122 -9 137 8 137 12 0 15 -19 15 -110z
m-83 -117 c-2 -38 -3 -7 -3 67 0 74 1 105 3 68 2 -38 2 -98 0 -135z m4037 -14
c-14 -33 -21 -37 -62 -42 -51 -5 -108 -24 -99 -33 3 -3 29 2 58 10 73 22 87
21 64 -4 -10 -11 -20 -18 -22 -16 -2 2 -28 -2 -56 -10 -66 -17 -72 -17 -57 1
7 8 9 15 6 15 -4 0 -2 8 3 18 5 10 39 28 75 41 36 13 66 25 66 28 0 9 -75 -8
-97 -23 -25 -16 -33 -17 -33 -6 1 21 23 34 91 52 73 19 74 20 19 14 -30 -4
-63 -10 -72 -16 -26 -13 -23 8 6 37 13 13 40 27 60 30 48 9 53 20 10 20 -19 0
-34 -3 -34 -6 0 -4 -8 -10 -17 -13 -10 -3 9 20 42 51 l60 58 3 -85 c2 -62 -2
-95 -14 -121z m-380 71 c21 -46 23 -60 18 -171 -4 -112 -3 -122 17 -150 l22
-29 -22 0 c-21 0 -22 -3 -17 -100 l5 -100 -29 0 -29 0 2 300 c1 165 4 300 6
300 2 0 14 -22 27 -50z m69 -1 c26 -17 49 -35 53 -40 7 -12 -13 -11 -37 1 -18
10 -18 9 -7 -17 7 -15 28 -52 47 -81 45 -70 34 -76 -16 -10 -45 58 -108 178
-95 178 5 0 30 -14 55 -31z m-1873 -209 l0 -200 -35 0 c-23 0 -38 6 -41 15 -8
19 -84 65 -108 65 -11 0 -23 -15 -33 -39 l-15 -40 -87 -3 c-47 -2 -89 -2 -93
0 -5 2 -8 93 -8 203 l0 199 210 0 210 0 0 -200z m-1400 130 c0 -11 -4 -20 -10
-20 -5 0 -10 9 -10 20 0 11 5 20 10 20 6 0 10 -9 10 -20z m3598 -199 c-2 -110
-6 -194 -10 -188 -4 7 -8 86 -8 177 0 152 5 210 17 210 3 0 3 -90 1 -199z
m-274 80 c9 -12 8 -12 -11 -3 -12 7 -33 12 -47 12 -25 0 -26 3 -26 51 l0 51
36 -49 c20 -26 42 -54 48 -62z m-3474 60 c0 -9 -177 -20 -217 -13 -13 3 -23 8
-23 13 0 5 54 9 120 9 66 0 120 -4 120 -9z m-235 -21 c12 -5 -38 -9 -132 -9
-91 -1 -154 3 -158 9 -8 12 261 12 290 0z m3954 -137 c-1 -82 2 -160 6 -174 4
-15 2 -30 -3 -33 -9 -5 -29 67 -24 87 1 4 -4 7 -10 7 -7 0 -29 37 -48 81 -38
88 -48 102 -43 61 3 -22 -4 -31 -33 -50 l-36 -22 7 32 c12 61 15 67 32 61 10
-4 14 -2 10 4 -4 6 5 13 22 16 15 3 47 22 70 41 24 20 45 36 48 36 2 0 3 -66
2 -147z m-3719 -17 l0 -143 -31 -7 c-17 -3 -44 -6 -60 -6 l-29 0 0 -243 c0
-231 -1 -245 -20 -262 -20 -18 -20 -17 -20 88 0 88 -3 107 -15 107 -13 0 -15
41 -15 305 l0 305 95 0 95 0 0 -144z m-343 128 l81 -7 4 -301 c3 -287 1 -315
-24 -316 -4 0 -9 136 -11 303 l-2 302 -3 -305 c-2 -291 -3 -306 -22 -317 -10
-7 -36 -39 -57 -70 -25 -40 -38 -53 -41 -41 -4 19 7 42 56 116 20 31 31 57 26
62 -5 5 -35 6 -68 3 -57 -6 -59 -7 -77 -47 l-19 -41 0 45 c0 74 17 116 54 140
19 11 37 28 40 37 5 12 10 13 18 5 9 -9 7 -17 -8 -34 -13 -16 -14 -19 -2 -10
13 10 18 10 24 1 5 -8 -2 -19 -16 -28 -13 -9 -33 -24 -44 -33 -21 -17 -20 -17
20 -18 45 0 55 13 68 88 7 39 -36 257 -59 302 -21 40 -40 38 -86 -9 -44 -43
-49 -73 -18 -95 19 -13 20 -20 14 -65 -4 -28 -10 -51 -15 -51 -26 0 -31 35
-28 209 l3 181 55 0 c30 0 92 -3 137 -6z m3974 -7 c-12 -12 -98 -37 -105 -30
-7 8 17 30 40 36 30 7 75 4 65 -6z m-3841 -297 c0 -257 -2 -300 -15 -300 -12
0 -15 44 -17 300 -3 280 -2 300 15 300 16 0 17 -21 17 -300z m3660 265 c24
-13 23 -13 -20 -9 l-45 5 39 -15 c41 -15 69 -36 49 -36 -7 0 -24 5 -39 11 -28
10 -28 10 -9 -11 20 -22 17 -34 -8 -24 -19 7 -38 58 -31 79 8 19 31 19 64 0z
m-530 -10 c0 -12 -17 -15 -95 -15 -52 0 -95 4 -95 9 0 15 21 19 108 20 67 1
82 -2 82 -14z m-360 -5 c0 -5 -24 -10 -54 -10 -30 0 -58 5 -61 10 -4 6 17 10
54 10 34 0 61 -4 61 -10z m970 -16 c0 -8 -5 -12 -10 -9 -6 4 -8 11 -5 16 9 14
15 11 15 -7z m-390 -134 l0 -130 -345 0 c-223 0 -345 4 -345 10 0 6 118 10
335 10 l335 0 0 110 0 110 -341 0 c-224 0 -338 3 -334 10 4 6 132 10 351 10
l344 0 0 -130z m-2900 4 c0 -77 -2 -84 -20 -84 -19 0 -20 7 -20 89 0 84 1 89
20 84 18 -5 20 -14 20 -89z m44 80 c3 -9 6 -49 6 -90 0 -67 -2 -74 -20 -74
-18 0 -20 7 -20 83 0 46 3 87 7 90 11 11 20 8 27 -9z m2146 -99 c0 -70 -4
-115 -10 -115 -6 0 -10 45 -10 115 0 70 4 115 10 115 6 0 10 -45 10 -115z
m1087 38 c-2 -16 -4 -3 -4 27 0 30 2 43 4 28 2 -16 2 -40 0 -55z m-2914 60
c-24 -2 -62 -2 -85 0 -24 2 -5 4 42 4 47 0 66 -2 43 -4z m2467 -79 c0 -64 -3
-85 -12 -81 -9 2 -13 25 -13 65 0 33 -3 58 -7 55 -5 -2 -8 -31 -8 -64 0 -56
-1 -59 -25 -59 -24 0 -25 3 -25 60 0 41 -4 60 -12 60 -9 0 -12 -17 -10 -60 3
-47 1 -60 -10 -60 -8 0 -15 8 -15 18 1 9 0 32 -1 50 l-2 32 -105 0 -104 0 -8
-37 -7 -38 -6 38 c-8 60 -25 48 -28 -20 -2 -47 -7 -63 -17 -63 -11 0 -15 14
-15 55 0 52 -1 55 -25 55 -20 0 -25 5 -25 25 0 23 -4 25 -40 25 l-40 0 0 -80
0 -80 -30 0 -30 0 0 95 0 95 310 0 310 0 0 -86z m38 -2 c2 -68 0 -82 -13 -82
-12 0 -15 15 -15 86 0 64 3 85 13 82 8 -3 13 -32 15 -86z m-2470 41 c3 -10
-17 -13 -77 -13 -66 0 -81 3 -81 15 0 13 13 15 77 13 50 -2 78 -7 81 -15z m34
-23 c2 -28 0 -40 -9 -40 -8 0 -13 14 -13 40 0 22 4 40 9 40 5 0 11 -18 13 -40z
m-1097 9 c-5 -26 -15 -38 -15 -18 0 8 -3 10 -8 4 -4 -6 -20 -19 -37 -29 -30
-19 -30 -19 -16 0 18 24 64 64 73 64 4 0 5 -10 3 -21z m3000 -12 c4 -18 5 -51
3 -72 -2 -33 -7 -41 -25 -43 -22 -3 -23 0 -23 72 0 69 2 76 20 76 14 0 21 -9
25 -33z m-1145 -7 l35 -29 -62 -1 c-35 0 -63 3 -63 8 1 58 38 67 90 22z m2425
-2 c-33 -40 -55 -54 -55 -37 0 18 51 69 68 69 9 0 5 -11 -13 -32z m-405 10 c0
-4 6 -5 13 -2 7 2 26 -10 42 -27 l30 -31 -32 16 c-37 18 -74 21 -90 5 -7 -7
-4 -22 12 -52 16 -32 32 -46 64 -58 24 -9 48 -23 53 -32 5 -9 13 -56 19 -104
5 -49 12 -96 15 -107 4 -13 2 -16 -6 -11 -16 10 -60 110 -60 136 0 37 -30 69
-76 80 l-44 11 0 94 0 94 30 -2 c17 -1 30 -6 30 -10z m341 -22 c-24 -37 -27
-61 -8 -50 9 5 9 4 0 -6 -16 -18 -25 -8 -25 26 0 17 9 35 22 46 32 26 34 22
11 -16z m-141 7 c-1 -10 -21 -35 -46 -57 -45 -38 -45 -38 -38 -11 5 22 4 26
-7 21 -8 -4 -5 0 6 9 11 9 30 18 43 22 12 3 22 11 22 19 0 8 5 14 10 14 6 0
10 -8 10 -17z m260 2 c-47 -18 -55 -18 -40 0 7 8 27 15 44 14 l31 -1 -35 -13z
m57 -2 c-16 -17 -108 -56 -114 -49 -4 4 108 64 122 65 5 1 2 -7 -8 -16z
m-4393 -41 c-29 -26 -31 -34 -38 -121 -7 -98 -3 -130 9 -62 5 29 15 47 36 62
17 12 33 18 36 15 10 -10 -30 -75 -70 -114 l-39 -37 7 120 c5 85 12 125 22
137 9 10 19 15 24 13 4 -3 11 4 14 16 5 15 10 18 18 10 8 -8 3 -19 -19 -39z
m1061 33 c0 -6 -34 -11 -77 -13 -66 -2 -78 0 -78 13 0 13 12 15 78 13 43 -2
77 -7 77 -13z m2279 -10 c-5 -12 -25 -15 -95 -15 -72 0 -89 3 -89 15 0 12 17
15 95 15 80 0 93 -2 89 -15z m-286 -37 c-2 -31 -8 -44 -20 -46 -15 -3 -18 4
-18 42 0 40 3 46 21 46 18 0 20 -5 17 -42z m850 24 c8 -5 -1 -8 -23 -8 -19 1
-35 4 -35 9 0 9 42 9 58 -1z m211 -39 c16 -55 13 -63 -9 -23 -21 39 -25 60
-10 60 5 0 14 -17 19 -37z m-1781 -83 c-1 -55 -6 -100 -10 -100 -4 0 -7 -8 -6
-17 1 -10 0 -34 0 -53 l-2 -35 -77 -1 c-43 -1 -174 1 -292 4 l-214 5 7 96 c3
53 9 120 12 149 l6 52 290 0 290 0 -4 -100z m1012 85 c0 -12 -17 -15 -95 -15
-78 0 -95 3 -95 15 0 12 17 15 95 15 78 0 95 -3 95 -15z m-3645 -45 c13 -7 26
-19 29 -27 5 -11 1 -11 -15 -2 -15 8 -24 8 -32 0 -8 -8 -1 -13 22 -17 28 -6
37 -15 56 -58 l23 -51 -21 -5 c-11 -3 -22 -11 -25 -18 -3 -9 3 -10 22 -2 23 8
28 7 35 -13 23 -62 23 -66 -3 -73 -14 -3 -26 -10 -26 -15 0 -9 28 -1 46 13 8
5 14 1 18 -14 6 -23 -15 -48 -39 -48 -15 0 -111 200 -124 260 -6 25 -10 63
-10 85 0 35 2 37 11 19 5 -12 21 -27 33 -34z m296 4 c-17 -22 -21 -23 -21 -9
0 22 33 61 38 46 2 -6 -6 -23 -17 -37z m-291 16 c6 -11 9 -20 7 -20 -2 0 -12
9 -22 20 -10 11 -13 20 -7 20 6 0 16 -9 22 -20z m4630 12 c-8 -4 -16 -14 -18
-22 -2 -8 -11 -23 -19 -32 -14 -16 -18 -16 -44 -3 -15 8 -36 15 -46 14 -10 0
-1 -7 20 -16 44 -18 45 -25 11 -52 -29 -23 -55 -26 -85 -11 -13 8 -19 7 -19 0
0 -6 10 -15 23 -20 l22 -9 -22 0 c-16 -1 -23 -7 -23 -20 0 -11 -3 -22 -7 -24
-5 -3 -6 17 -5 43 3 41 11 56 54 104 l50 56 61 -1 c34 0 55 -3 47 -7z m-3075
-24 c2 -13 6 -36 7 -53 3 -26 8 -31 38 -35 20 -3 35 -11 34 -17 -3 -43 -3 -43
-63 -43 -61 0 -91 -15 -91 -46 0 -7 9 -36 19 -64 l19 -50 -69 -1 c-38 -1 -106
-2 -151 -3 l-83 -1 -3 152 -3 153 -44 -7 c-37 -5 -45 -3 -45 10 0 19 38 22
277 25 151 2 153 2 158 -20z m2801 -79 c12 -14 11 -17 -12 -28 l-27 -12 7 47
c3 26 7 59 8 73 1 14 3 6 5 -19 3 -25 11 -52 19 -61z m-4271 61 c8 -13 -44 2
-56 16 -9 12 -6 12 20 3 17 -6 33 -14 36 -19z m1025 5 c0 -13 -33 -15 -235
-15 l-235 0 2 -357 c1 -197 3 -334 5 -305 l4 52 160 0 160 0 -3 -92 -3 -93
-100 -3 c-143 -3 -150 -9 -12 -11 l117 -1 0 -115 0 -115 -96 0 -95 0 3 51 3
51 48 -5 c26 -4 47 -2 47 3 0 5 -21 10 -47 12 -46 3 -48 4 -51 36 -4 36 -7 38
-29 17 -21 -22 -30 -9 -10 13 21 23 22 42 2 42 -8 0 -15 -4 -15 -8 0 -5 -6
-16 -13 -26 -12 -17 -14 -15 -12 17 0 24 8 42 20 51 11 8 17 18 13 22 -4 4
-14 1 -23 -6 -12 -10 -15 -10 -15 4 0 18 -13 20 -41 6 -25 -14 -26 -54 -1 -46
12 4 19 1 19 -8 0 -8 -6 -12 -14 -9 -7 3 -16 -2 -19 -11 -20 -52 -24 23 -24
424 l0 440 245 0 c211 0 245 -2 245 -15z m3180 -51 c11 -25 19 -60 19 -77 -1
-30 -2 -29 -8 8 -4 22 -15 54 -24 72 -18 34 -20 43 -12 43 3 0 15 -21 25 -46z
m-3090 -102 c0 -126 -2 -138 -20 -150 -27 -16 -25 -36 4 -51 33 -18 170 -10
216 12 35 17 35 17 5 12 -22 -4 -26 -3 -15 5 8 5 40 10 72 10 54 0 56 -1 67
-31 6 -18 11 -36 11 -40 0 -5 -126 -10 -280 -11 -182 -2 -279 0 -277 7 5 14
75 33 124 34 40 1 41 2 48 42 5 29 10 38 16 28 5 -8 9 -12 10 -9 6 40 6 60 -1
60 -5 0 -10 -6 -13 -12 -14 -39 -35 56 -36 164 -1 59 3 64 52 67 15 1 17 -12
17 -137z m-90 59 c0 -38 -3 -83 -7 -102 -10 -53 -21 -9 -22 89 -1 66 2 82 14
82 12 0 15 -14 15 -69z m-987 29 c31 -27 35 -37 47 -118 15 -107 13 -129 -13
-110 -19 14 -118 244 -109 253 13 13 44 3 75 -25z m949 -62 c3 -51 8 -102 12
-113 4 -11 -1 -8 -10 8 l-19 27 -202 0 -203 0 0 85 0 85 209 0 209 0 4 -92z
m2488 78 c0 -2 -11 -82 -25 -177 -14 -96 -25 -177 -25 -181 0 -5 -156 -8 -346
-8 l-346 0 5 33 c4 17 13 95 22 172 9 77 18 146 20 153 3 9 82 12 350 12 190
0 345 -2 345 -4z m345 -28 c-17 -100 -35 -239 -35 -278 0 -71 -4 -73 -101 -59
-81 12 -86 15 -137 63 l-52 51 15 115 c9 63 18 121 20 128 3 9 42 12 150 12
l146 0 -6 -32z m283 -4 c25 -17 28 -32 8 -59 -13 -18 -16 -18 -33 -4 -41 36
-45 29 -8 -12 23 -24 49 -54 60 -67 l19 -23 -27 6 c-36 9 -77 -2 -77 -20 0 -8
4 -15 9 -15 5 0 12 -21 16 -47 5 -36 15 -55 41 -80 19 -17 34 -40 35 -50 0
-10 3 -13 6 -5 10 26 23 10 23 -28 0 -22 -4 -40 -10 -40 -5 0 -10 9 -10 20 0
26 -39 50 -90 57 l-41 6 1 169 c1 127 -2 173 -12 186 -12 16 -11 16 7 2 11 -8
33 -25 49 -38 16 -12 31 -21 33 -18 7 6 -29 66 -40 66 -4 0 -5 -6 -1 -12 5 -9
2 -9 -9 1 -41 33 -1 37 51 5z m-98 -191 l0 -163 -25 0 -25 0 0 178 c0 98 3
182 7 186 4 4 15 -3 25 -16 15 -20 18 -46 18 -185z m317 185 c-3 -8 -6 -5 -6
6 -1 11 2 17 5 13 3 -3 4 -12 1 -19z m-4189 -28 c2 -13 1 -53 -3 -89 l-8 -66
-13 55 c-7 30 -13 72 -14 93 0 31 3 38 18 35 9 -2 19 -14 20 -28z m4172 -7 c0
-31 -41 -123 -55 -123 -3 0 -5 31 -5 68 0 62 2 70 23 80 34 17 37 15 37 -25z
m-1563 -35 c-3 -8 -6 -5 -6 6 -1 11 2 17 5 13 3 -3 4 -12 1 -19z m-1700 -70
c-2 -13 -4 -3 -4 22 0 25 2 35 4 23 2 -13 2 -33 0 -45z m426 -63 c44 -115 51
-145 34 -145 -7 0 -27 49 -50 128 -54 184 -50 189 16 17z m2677 106 c0 -11 5
-23 10 -26 6 -3 10 -11 10 -16 0 -6 -13 2 -30 17 -21 20 -26 31 -17 36 19 12
27 9 27 -11z m87 -13 c-3 -7 -5 -2 -5 12 0 14 2 19 5 13 2 -7 2 -19 0 -25z
m252 -13 c-10 -9 -26 -11 -54 -6 -34 6 -43 3 -58 -16 -16 -19 -47 -23 -47 -4
0 5 52 33 70 37 3 0 12 4 20 7 25 10 75 13 79 4 2 -5 -3 -15 -10 -22z m-183
-32 c-2 -21 -12 -65 -22 -98 -17 -57 -18 -58 -25 -30 -14 61 -9 91 19 128 15
20 28 36 29 37 2 0 1 -17 -1 -37z m-3326 -12 c0 -16 3 -42 6 -59 6 -29 4 -30
-35 -37 -23 -4 -48 -13 -55 -21 -11 -11 -50 -14 -170 -14 l-156 0 0 80 0 80
205 0 205 0 0 -29z m2507 7 c-3 -8 -6 -5 -6 6 -1 11 2 17 5 13 3 -3 4 -12 1
-19z m-750 -10 c-3 -8 -6 -5 -6 6 -1 11 2 17 5 13 3 -3 4 -12 1 -19z m1500
-10 c-3 -8 -6 -5 -6 6 -1 11 2 17 5 13 3 -3 4 -12 1 -19z m-1997 -7 c0 -10 3
-33 6 -50 l7 -31 -47 0 -46 0 0 50 0 50 40 0 c32 0 40 -4 40 -19z m275 9 c4
-6 -18 -10 -58 -10 -69 0 -83 -6 -66 -27 9 -11 0 -13 -49 -13 -35 0 -64 5 -68
12 -5 7 -2 9 7 4 8 -4 3 1 -11 13 l-25 20 80 3 c44 2 103 5 132 6 28 1 55 -2
58 -8z m1626 -1 c36 -13 62 -29 56 -36 -3 -2 -16 2 -30 8 -21 10 -31 9 -50 -4
-24 -15 -37 -13 -37 5 0 4 12 9 28 9 20 1 22 2 7 6 -11 3 -24 9 -29 14 -14 13
14 11 55 -2z m-3881 -31 c0 -4 -9 -8 -21 -8 -12 0 -36 -15 -55 -34 -38 -38
-38 -37 -23 17 12 43 41 60 77 44 12 -6 22 -14 22 -19z m4081 22 c16 -9 19
-22 19 -79 0 -46 -5 -72 -14 -80 -7 -6 -11 -22 -9 -35 3 -13 0 -27 -6 -30 -7
-5 -11 2 -11 19 0 17 -8 29 -25 37 -27 12 -27 21 2 102 7 21 13 47 13 57 0 22
4 23 31 9z m-4214 -77 c-2 -16 -4 -3 -4 27 0 30 2 43 4 28 2 -16 2 -40 0 -55z
m-260 33 c2 -32 13 -49 13 -22 0 10 6 16 13 13 6 -2 11 -10 10 -16 -2 -6 0
-10 5 -9 19 6 51 -25 57 -54 14 -72 14 -72 40 -48 l23 21 11 -32 c14 -42 14
-136 -1 -145 -6 -4 -8 -3 -5 3 3 5 -25 44 -63 86 -79 88 -116 146 -126 201 -5
30 -4 38 7 34 8 -3 15 -17 16 -32z m2647 19 c-4 -10 -20 -15 -50 -15 -59 0
-56 18 4 23 26 2 48 4 49 5 1 1 0 -5 -3 -13z m1876 -80 c0 -57 -4 -95 -10 -95
-6 0 -10 38 -10 95 0 57 4 95 10 95 6 0 10 -38 10 -95z m-3980 -179 c-35 -36
-50 -46 -50 -33 0 22 -5 22 -48 -5 l-35 -22 7 29 c17 66 102 221 150 273 l21
24 3 -108 3 -108 -51 -50z m3123 203 c28 -32 56 -81 77 -132 18 -45 35 -88 38
-96 4 -11 -3 -13 -38 -7 -23 4 -51 11 -61 16 -23 13 -39 70 -39 143 0 31 -4
57 -10 57 -5 0 -10 -11 -10 -25 0 -19 -5 -25 -20 -25 -22 0 -22 11 -4 98 7 32
17 28 67 -29z m-3433 9 c0 -30 0 -31 -20 -13 -11 10 -20 24 -20 32 0 7 9 13
20 13 16 0 20 -7 20 -32z m150 28 c0 -3 -22 -33 -50 -67 -27 -34 -50 -70 -50
-80 0 -9 -4 -19 -10 -21 -11 -3 -30 -94 -30 -144 0 -18 -5 -36 -12 -40 -8 -5
-10 14 -5 75 4 64 10 88 25 104 11 12 25 41 31 64 8 29 24 53 53 77 41 36 48
40 48 32z m938 -3 c-16 -2 -40 -2 -55 0 -16 2 -3 4 27 4 30 0 43 -2 28 -4z
m75 0 c-7 -2 -21 -2 -30 0 -10 3 -4 5 12 5 17 0 24 -2 18 -5z m-1193 -82 c0
-11 -10 -5 -30 19 -34 41 -36 47 -12 52 17 4 42 -38 42 -71z m302 42 c-11 -15
-31 -52 -46 -81 -33 -66 -60 -93 -83 -86 -13 4 -15 3 -5 -4 11 -7 8 -14 -12
-30 -21 -16 -26 -29 -27 -68 -1 -27 -5 -76 -9 -109 -7 -50 -8 -41 -6 55 1 106
4 120 32 181 21 43 46 77 74 100 23 19 54 44 68 56 34 27 40 22 14 -14z m3755
28 c-17 -6 -17 -8 -3 -20 9 -7 16 -21 16 -30 -1 -12 -7 -9 -25 12 -32 36 -31
47 3 46 22 0 23 -2 9 -8z m-1989 -13 c-3 -10 -44 -14 -146 -16 -122 -2 -142 0
-142 13 0 13 22 15 146 15 112 0 145 -3 142 -12z m365 -11 c-5 -24 -5 -24
-206 -30 -111 -4 -256 -6 -322 -5 l-120 2 155 6 c85 4 195 8 243 9 56 1 86 5
82 11 -3 6 -19 10 -36 10 -16 0 -29 5 -29 10 0 6 46 10 119 10 l118 0 -4 -23z
m224 -24 c-3 -10 -5 -2 -5 17 0 19 2 27 5 18 2 -10 2 -26 0 -35z m-2662 -70
c8 -17 13 -50 11 -73 -5 -62 -16 -61 -15 1 1 53 -7 77 -48 139 -12 19 -10 18
11 -5 15 -16 33 -44 41 -62z m4145 -139 c-17 -329 -18 -333 -15 -79 3 216 9
304 22 292 2 -3 -1 -99 -7 -213z m39 194 c0 -13 -4 -32 -9 -43 -7 -15 -9 -10
-9 23 -1 23 4 42 9 42 6 0 10 -10 9 -22z m-3359 -107 l0 -98 -51 -7 c-28 -4
-100 -4 -160 0 l-109 7 0 98 0 99 160 0 160 0 0 -99z m572 87 c10 -30 -41 -37
-271 -38 -221 -1 -229 0 -234 20 -5 19 0 20 206 23 117 1 231 3 254 5 26 1 43
-3 45 -10z m1245 -15 l-2 -28 -320 2 c-387 1 -525 9 -525 29 0 17 59 19 512
22 l337 2 -2 -27z m-2502 -36 c-5 -17 -12 -24 -21 -20 -17 6 -18 35 -2 51 17
17 30 -1 23 -31z m735 -292 c0 -291 -2 -335 -15 -335 -13 0 -15 30 -15 208 0
114 -3 264 -7 335 -6 125 -6 127 15 127 l22 0 0 -335z m1990 318 c18 -8 -71
-21 -152 -22 -49 -1 -58 2 -58 17 0 15 10 17 97 14 54 -1 105 -6 113 -9z m100
-26 l0 -34 -242 -6 c-402 -11 -518 -10 -518 8 0 15 105 18 554 15 l138 -1 -6
26 c-6 24 -4 25 34 25 39 0 40 -1 40 -33z m155 -4 c4 -21 7 -45 8 -53 2 -12
25 -16 129 -18 116 -2 126 -4 131 -22 3 -13 14 -20 29 -20 12 0 41 -7 63 -15
47 -17 135 -20 135 -5 0 6 -7 24 -15 40 -9 17 -11 30 -5 30 5 0 10 -4 10 -10
0 -5 26 -23 58 -39 51 -26 55 -30 32 -35 -50 -10 -1657 -18 -1664 -8 -3 6 8
33 25 61 27 44 36 51 63 51 49 0 62 -13 42 -41 -33 -48 -30 -49 184 -49 110 0
200 3 200 7 0 3 -7 15 -17 25 -18 20 -42 25 -25 5 9 -10 -1 -11 -51 -4 -79 12
-87 14 -87 27 0 6 77 10 223 10 123 0 259 3 302 7 64 5 77 4 73 -8 -3 -10 -29
-15 -94 -19 -87 -5 -89 -6 -89 -30 0 -25 1 -25 95 -28 130 -3 335 11 334 23
-2 21 -62 40 -141 43 l-83 4 0 54 0 54 65 0 64 0 6 -37z m208 25 l97 2 0 -29
c0 -28 -3 -29 -63 -40 -77 -13 -217 -15 -217 -2 0 5 -3 16 -6 25 -5 14 4 16
59 16 36 0 69 5 72 10 4 6 -20 10 -64 10 -40 0 -73 5 -77 11 -5 8 9 9 47 4 30
-5 98 -8 152 -7z m-1814 -14 c52 -11 35 -25 -21 -18 -68 9 -97 23 -47 24 20 0
51 -3 68 -6z m2427 -76 c6 -35 15 -71 19 -81 7 -16 4 -17 -21 -11 -44 10 -44
10 -44 95 0 73 1 79 18 70 11 -6 21 -31 28 -73z m44 60 c7 -18 9 -19 9 -5 1 9
8 17 16 17 11 0 13 -7 9 -28 -5 -24 1 -34 37 -67 24 -21 34 -35 24 -31 -11 4
-33 13 -50 18 -16 6 -34 15 -39 19 -14 13 -28 11 -20 -2 3 -6 25 -20 48 -30
l41 -19 -31 0 c-43 0 -71 27 -78 74 l-5 39 29 -28 c42 -40 37 -23 -6 25 -33
36 -34 40 -15 40 13 0 25 -9 31 -22z m241 -1 c-5 -7 -15 -32 -22 -57 -13 -44
-13 -45 -17 -13 -4 36 23 97 39 87 6 -4 7 -10 0 -17z m-3163 -260 l-3 -261
-75 -43 c-41 -23 -78 -42 -82 -43 -5 0 -8 138 -8 308 l0 307 85 -3 85 -3 -2
-262z m762 258 c7 -8 23 -15 36 -15 28 0 29 -11 8 -73 l-16 -47 -171 2 c-95 0
-156 3 -137 5 19 1 69 6 109 9 66 5 78 10 103 36 15 16 30 45 34 64 7 37 15
42 34 19z m156 2 c13 -13 0 -13 -76 0 l-75 12 72 -2 c40 -2 75 -6 79 -10z
m2185 -195 c-13 -21 -15 55 -3 149 l7 64 3 -98 c1 -53 -2 -105 -7 -115z
m-3711 -13 c0 -128 -4 -208 -9 -204 -6 3 -14 -3 -20 -12 -7 -13 -10 39 -11
180 0 173 2 201 18 222 9 14 18 25 20 25 1 0 2 -95 2 -211z m872 205 l75 -7
-20 -81 -20 -82 26 -41 c34 -54 74 -73 152 -73 l62 0 7 -40 c8 -50 -3 -153
-18 -162 -6 -4 -122 -8 -258 -8 l-248 0 0 250 0 250 83 0 c46 0 118 -3 159 -6z
m3108 -9 c11 -13 5 -15 -41 -15 -30 0 -69 -4 -87 -9 -42 -13 -41 -6 6 18 44
24 105 27 122 6z m-2990 -25 c0 -36 -38 -140 -51 -140 -6 0 -8 8 -5 18 3 9 10
40 16 67 15 72 20 85 31 85 5 0 9 -13 9 -30z m622 8 c-29 -32 -82 -136 -82
-162 0 -53 11 -66 51 -66 l40 0 -3 -117 -3 -118 -125 -3 c-221 -6 -288 10
-277 65 2 13 0 26 -4 29 -5 3 -9 16 -9 30 0 19 5 24 26 24 15 0 52 11 83 24
31 13 82 31 114 40 88 26 114 89 53 130 l-24 15 21 51 c12 29 27 50 36 50 9 1
27 7 41 15 14 8 38 14 54 15 l29 0 -21 -22z m96 15 c-10 -2 -26 -2 -35 0 -10
3 -2 5 17 5 19 0 27 -2 18 -5z m-2044 -12 c3 -4 -8 -39 -25 -77 l-30 -69 6 63
c3 35 9 70 12 78 6 15 29 19 37 5z m1794 -51 c-11 -33 -23 -60 -28 -60 -4 0
-1 27 8 60 9 33 22 60 28 60 9 0 7 -17 -8 -60z m2567 50 c7 -12 -139 -86 -188
-95 -70 -13 -111 13 -70 46 11 10 14 10 9 2 -5 -10 8 -13 56 -12 l63 1 -40 12
-40 13 65 7 c93 10 120 16 120 27 0 12 17 12 25 -1z m-1045 -30 c0 -5 -9 -10
-19 -10 -11 0 -23 5 -26 10 -4 6 5 10 19 10 14 0 26 -4 26 -10z m-3031 -260
l1 -260 -78 0 -78 0 4 90 c3 55 0 95 -6 103 -7 8 -8 26 -3 48 4 19 6 49 4 65
-4 23 5 43 39 89 39 52 104 125 112 125 2 0 4 -117 5 -260z m1798 213 c-3 -2
-16 -3 -29 -1 l-23 3 25 25 25 25 3 -23 c2 -13 1 -26 -1 -29z m153 32 c0 -12
-14 -15 -70 -15 -56 0 -70 3 -70 15 0 12 14 15 70 15 56 0 70 -3 70 -15z
m1596 -107 c1 -2 4 -14 6 -28 l3 -25 -975 0 -975 0 0 30 0 30 847 5 c776 5
849 6 864 22 16 15 15 18 -17 37 -19 12 -39 21 -46 21 -6 0 -15 5 -18 10 -5 8
302 -93 311 -102z m-513 95 c-7 -2 -19 -2 -25 0 -7 3 -2 5 12 5 14 0 19 -2 13
-5z m-3553 -18 c23 -12 30 -22 30 -46 0 -18 -4 -28 -10 -24 -5 3 -10 15 -10
26 0 11 -4 17 -10 14 -5 -3 -10 -17 -10 -31 0 -15 -6 -24 -15 -24 -10 0 -15 9
-14 28 1 15 1 32 -1 37 -4 15 -1 35 5 35 4 0 19 -7 35 -15z m3303 -4 c8 -8
-43 -11 -190 -11 -186 0 -224 5 -205 25 11 12 382 -1 395 -14z m-779 0 c6 -9
-182 -7 -191 3 -4 3 37 6 90 6 53 0 98 -4 101 -9z m-2246 -47 c-11 -29 -12
-29 -16 -5 -2 13 2 27 9 32 19 12 21 5 7 -27z m119 16 c-3 -22 -35 -60 -50
-60 -5 0 1 9 14 20 13 10 19 19 13 20 -17 0 -42 -23 -47 -45 -3 -14 -5 -11 -6
10 -1 25 6 34 37 52 20 12 38 22 39 23 2 0 2 -9 0 -20z m-264 -65 c3 -43 2
-60 -3 -45 -8 24 -14 127 -6 119 2 -2 6 -35 9 -74z m4062 -15 c-13 -25 -15
-50 -11 -123 l6 -92 -15 55 c-8 30 -14 69 -15 86 0 34 -16 54 -41 54 -16 0
-29 36 -29 82 0 17 5 19 39 13 22 -4 48 -2 58 4 15 8 18 6 21 -19 2 -16 -4
-43 -13 -60z m-3978 -9 c-4 -48 -11 -99 -16 -112 -10 -24 -7 92 5 169 10 65
17 29 11 -57z m86 29 c-5 -49 -3 -60 8 -58 15 3 16 -14 3 -47 -7 -19 -6 -19
12 -3 18 16 19 15 16 -25 l-4 -42 -44 3 c-24 2 -44 5 -44 7 0 2 9 43 20 92 11
48 23 98 25 111 10 41 13 22 8 -38z m3918 -82 c-5 -29 -7 -75 -5 -103 3 -40 0
-35 -13 29 -16 73 -16 79 0 88 13 7 17 25 19 71 1 56 2 58 5 15 2 -26 0 -71
-6 -100z m-4153 108 c6 -13 14 -41 17 -63 l7 -38 -26 37 c-25 35 -35 88 -18
88 5 0 14 -11 20 -24z m29 2 c-3 -8 -6 -5 -6 6 -1 11 2 17 5 13 3 -3 4 -12 1
-19z m4273 12 c0 -8 -22 -30 -31 -30 -5 0 -5 30 0 36 4 4 31 -1 31 -6z m-4263
-62 c-3 -7 -5 -2 -5 12 0 14 2 19 5 13 2 -7 2 -19 0 -25z m160 -5 c-3 -10 -5
-4 -5 12 0 17 2 24 5 18 2 -7 2 -21 0 -30z m1313 6 c0 -5 -9 -9 -20 -9 -19 0
-27 20 -13 33 7 8 33 -11 33 -24z m138 -10 c76 -40 75 -41 -4 -19 -38 11 -78
20 -89 20 -11 0 -26 10 -34 21 -13 21 -12 22 29 15 22 -3 67 -20 98 -37z m307
31 c-4 -6 -65 -9 -158 -8 l-152 2 145 6 c80 3 151 7 158 8 7 1 10 -2 7 -8z
m2300 -39 c2 -23 0 -53 -4 -68 -7 -25 -8 -23 -14 20 -7 47 0 103 10 93 3 -3 7
-23 8 -45z m85 -100 l0 -150 -34 14 c-19 8 -41 12 -49 9 -35 -13 -6 109 38
158 44 48 49 80 8 48 -25 -20 -28 -20 -31 -5 -4 16 43 75 60 75 4 0 8 -67 8
-149z m-4275 -29 c-11 -12 -18 11 -21 66 l-3 57 15 -59 c8 -32 12 -61 9 -64z
m2182 -44 c-2 -29 -3 -6 -3 52 0 58 1 81 3 53 2 -29 2 -77 0 -105z m53 -68 c0
-191 -2 -219 -15 -214 -13 5 -15 39 -15 220 0 184 2 214 15 214 13 0 15 -31
15 -220z m220 5 l0 -215 -105 0 -105 0 0 215 0 215 105 0 105 0 0 -215z m444
193 c8 -30 8 -337 0 -377 l-6 -31 -209 0 -209 0 0 215 0 215 209 0 c208 0 209
0 215 -22z m306 -93 l0 -115 -140 0 -140 0 0 115 0 115 140 0 140 0 0 -115z
m141 95 l24 -19 -55 -1 -55 0 3 -287 c4 -342 -3 -493 -24 -493 -12 0 -14 65
-14 410 l0 410 49 0 c34 0 56 -6 72 -20z m509 -345 l0 -365 -85 0 -85 0 0 328
0 328 -47 23 c-42 20 -55 22 -139 16 -85 -7 -95 -6 -120 14 l-27 21 252 0 251
0 0 -365z m70 164 c0 -186 -1 -200 -17 -197 -16 3 -18 22 -21 201 -2 192 -2
197 18 197 19 0 20 -6 20 -201z m-1767 -106 c4 -157 7 -340 7 -405 l0 -119
-42 3 -43 3 -3 403 -2 402 38 0 39 0 6 -287z m1862 199 c8 -25 15 -49 15 -53
0 -4 -20 -9 -45 -11 l-45 -3 0 78 0 78 30 -22 c17 -13 36 -41 45 -67z m-3998
31 c-3 -10 -5 -2 -5 17 0 19 2 27 5 18 2 -10 2 -26 0 -35z m3526 10 c-51 -2
-135 -2 -185 0 -51 1 -10 3 92 3 102 0 143 -2 93 -3z m117 -73 l0 -50 -190 0
-190 0 0 53 0 52 190 -3 190 -3 0 -49z m499 44 c1 11 4 17 7 13 4 -3 3 -23 -1
-44 -8 -36 -8 -37 -15 -13 -5 14 -8 34 -8 45 l-1 20 9 -20 c8 -19 9 -19 9 -1z
m-4163 -51 c-10 -10 -19 5 -10 18 6 11 8 11 12 0 2 -7 1 -15 -2 -18z m123 -4
c-16 -10 -23 -4 -14 10 3 6 11 8 17 5 6 -4 5 -9 -3 -15z m71 1 c-8 -5 -19 -10
-25 -10 -5 0 -3 5 5 10 8 5 20 10 25 10 6 0 3 -5 -5 -10z m-263 -6 c-3 -3 -12
-4 -19 -1 -8 3 -5 6 6 6 11 1 17 -2 13 -5z m280 -88 c-8 -109 -36 -179 -80
-197 -18 -8 -60 -14 -95 -14 -56 0 -65 3 -83 25 -25 32 -47 107 -55 184 l-6
61 123 1 c68 0 135 6 149 12 51 22 53 19 47 -72z m3940 42 c-3 -8 -6 -5 -6 6
-1 11 2 17 5 13 3 -3 4 -12 1 -19z m-114 -2 c1 -5 -19 -10 -45 -11 -49 -3 -66
10 -25 18 33 7 67 3 70 -7z m34 -18 c-3 -7 -5 -2 -5 12 0 14 2 19 5 13 2 -7 2
-19 0 -25z m-407 -133 l0 -145 -190 0 -190 0 0 145 0 145 190 0 190 0 0 -145z
m545 115 c-16 -4 -66 -7 -110 -7 l-80 1 80 6 c44 3 94 7 110 7 l30 1 -30 -8z
m-3618 -82 c-2 -18 -4 -6 -4 27 0 33 2 48 4 33 2 -15 2 -42 0 -60z m1042 35
c-2 -35 -3 -39 -6 -18 -3 17 -11 34 -19 38 -17 10 -9 27 12 27 10 0 14 -12 13
-47z m-134 13 c-34 -13 -76 -26 -95 -30 -33 -6 -33 -5 10 15 44 20 101 37 130
38 8 0 -12 -10 -45 -23z m2591 6 c56 -2 118 1 139 7 l38 10 -6 -102 c-6 -118
-27 -184 -64 -198 -41 -15 -145 -11 -183 9 -45 22 -58 66 -59 196 -1 90 0 97
17 90 9 -4 62 -10 118 -12z m-3669 -59 c-2 -16 -4 -5 -4 22 0 28 2 40 4 28 2
-13 2 -35 0 -50z m2783 7 l0 -60 -140 0 -140 0 0 60 0 60 140 0 140 0 0 -60z
m1240 -25 c0 -3 -22 6 -50 20 -27 14 -50 28 -50 30 0 3 23 -6 50 -20 28 -14
50 -28 50 -30z m-3682 -2 c-26 -2 -71 -2 -100 0 -29 2 -8 3 47 3 55 0 79 -1
53 -3z m2442 -263 l0 -210 -140 0 -140 0 0 210 0 210 140 0 140 0 0 -210z
m460 -10 l0 -110 -190 0 -190 0 0 110 0 110 190 0 190 0 0 -110z m0 -152 c0
-59 3 -58 -185 -58 -95 0 -180 3 -189 6 -11 4 -16 19 -16 43 l0 36 195 0 195
0 0 -27z"/>
<path d="M1300 3485 l0 -185 230 -2 c127 -1 238 -2 248 -2 16 -1 17 14 17 184
l0 185 -247 3 -248 2 0 -185z m478 -2 l2 -173 -230 0 -230 0 0 174 0 173 228
-1 227 -1 3 -172z"/>
<path d="M1489 3541 c-58 -59 -24 -151 56 -151 27 0 44 8 66 29 33 33 36 58
14 101 -30 58 -90 67 -136 21z m85 -2 c13 -7 30 -24 37 -40 22 -55 -40 -106
-96 -81 -27 13 -40 49 -31 87 9 36 20 31 56 -25 18 -27 34 -50 36 -50 11 0 1
22 -31 62 -42 56 -32 74 29 47z"/>
<path d="M2195 3478 c-3 -18 -5 -112 -3 -208 l3 -175 298 -3 297 -2 0 203 0
204 -217 6 c-120 4 -253 7 -295 7 l-77 0 -6 -32z m585 -178 l0 -190 -285 0
-285 0 0 190 0 190 285 0 285 0 0 -190z"/>
<path d="M2294 3451 c19 -7 176 -4 185 4 2 3 -43 5 -100 4 -57 0 -96 -4 -85
-8z"/>
<path d="M2533 3453 c26 -2 67 -2 90 0 23 2 2 3 -48 3 -49 0 -68 -1 -42 -3z"/>
<path d="M2710 3300 l0 -159 -107 -4 -108 -3 113 -2 112 -2 0 165 c0 91 -2
165 -5 165 -3 0 -5 -72 -5 -160z"/>
<path d="M2262 3293 l-2 -163 63 2 62 2 -57 3 -57 4 -4 157 -3 157 -2 -162z"/>
<path d="M2950 3060 l0 -260 215 0 215 0 0 260 0 260 -215 0 -215 0 0 -260z
m418 3 l2 -243 -200 0 -200 0 0 238 c0 131 3 242 7 246 4 3 93 5 197 4 l191
-3 3 -242z"/>
<path d="M2990 3065 l0 -215 175 0 175 0 0 215 0 215 -175 0 -175 0 0 -215z
m190 110 c15 -18 7 -43 -16 -52 -24 -9 -46 24 -33 48 12 23 32 24 49 4z"/>
<path d="M3720 3130 l0 -181 148 3 147 3 0 175 0 175 -147 3 -148 3 0 -181z
m280 0 l0 -160 -130 0 -130 0 0 160 0 160 130 0 130 0 0 -160z"/>
<path d="M3790 3190 l0 -60 85 0 85 0 0 60 0 60 -85 0 -85 0 0 -60z m150 0 l0
-50 -65 0 -65 0 0 50 0 50 65 0 65 0 0 -50z"/>
<path d="M3772 3048 c2 -27 8 -43 16 -42 6 1 48 2 92 3 l80 1 0 40 0 40 -96 0
-95 0 3 -42z m178 2 l0 -30 -85 0 -85 0 0 30 0 30 85 0 85 0 0 -30z"/>
<path d="M1315 3250 c-4 -7 73 -10 224 -10 147 0 231 4 231 10 0 6 -81 10
-224 10 -139 0 -227 -4 -231 -10z"/>
<path d="M1470 3094 c0 -20 34 -117 37 -106 3 7 -2 32 -10 57 -13 37 -13 43
-1 38 8 -3 14 0 14 6 0 6 -9 11 -20 11 -11 0 -20 -3 -20 -6z"/>
<path d="M1557 2993 c-4 -3 -6 -20 -6 -37 2 -27 2 -28 6 -6 3 14 10 31 15 38
11 12 -3 18 -15 5z"/>
<path d="M1867 2983 c-4 -3 -7 -87 -7 -185 l0 -179 143 3 142 3 3 183 2 182
-138 0 c-76 0 -142 -3 -145 -7z m263 -172 l0 -171 -125 0 -125 0 0 168 0 168
125 3 125 3 0 -171z"/>
<path d="M1910 2813 l0 -118 71 3 c52 3 74 0 80 -10 7 -10 9 -9 9 4 0 26 -17
31 -87 29 l-63 -2 0 100 0 101 80 0 79 0 4 -102 3 -103 2 108 2 107 -90 0 -90
0 0 -117z"/>
<path d="M1960 2766 c0 -2 8 -10 18 -17 15 -13 16 -12 3 4 -13 16 -21 21 -21
13z"/>
<path d="M2008 2733 c7 -3 16 -2 19 1 4 3 -2 6 -13 5 -11 0 -14 -3 -6 -6z"/>
<path d="M1514 2964 c-18 -14 -18 -15 4 -4 12 6 22 13 22 15 0 8 -5 6 -26 -11z"/>
<path d="M4070 2955 c0 -8 -9 -24 -20 -35 -21 -21 -26 -55 -11 -79 6 -9 32
-15 75 -17 56 -2 66 0 66 14 0 15 -2 15 -10 2 -7 -11 -10 -6 -10 21 0 21 -7
42 -16 50 -9 7 -20 23 -25 36 -10 26 -49 32 -49 8z m35 -5 c3 -5 1 -10 -4 -10
-6 0 -11 5 -11 10 0 6 2 10 4 10 3 0 8 -4 11 -10z"/>
<path d="M1590 2948 c0 -5 35 -7 78 -7 78 2 69 6 -26 11 -28 2 -52 0 -52 -4z"/>
<path d="M1610 2884 c60 -8 130 -8 130 -1 0 4 -35 6 -77 6 -43 -1 -67 -3 -53
-5z"/>
<path d="M4790 3119 c-27 -15 -29 -18 -10 -13 14 3 32 12 40 20 19 19 12 17
-30 -7z"/>
<path d="M4750 3053 c-14 -3 -29 -9 -35 -14 -10 -10 45 -2 80 12 l20 8 -20 -1
c-11 0 -31 -3 -45 -5z"/>
<path d="M1302 2720 c0 -14 2 -19 5 -12 2 6 2 18 0 25 -3 6 -5 1 -5 -13z"/>
<path d="M368 2433 c7 -3 16 -2 19 1 4 3 -2 6 -13 5 -11 0 -14 -3 -6 -6z"/>
<path d="M420 2320 c0 -13 11 -13 30 0 12 8 11 10 -7 10 -13 0 -23 -4 -23 -10z"/>
<path d="M4880 2561 c0 -5 14 -11 31 -15 47 -9 56 -8 56 9 0 11 -12 15 -44 15
-23 0 -43 -4 -43 -9z"/>
<path d="M4836 2512 c-6 -10 26 -22 59 -22 16 1 17 2 5 9 -28 16 -58 22 -64
13z"/>
<path d="M4830 2480 c8 -5 26 -10 39 -10 32 0 24 6 -19 14 -25 4 -31 3 -20 -4z"/>
<path d="M1150 1800 c0 -5 25 -10 55 -10 30 0 55 5 55 10 0 6 -25 10 -55 10
-30 0 -55 -4 -55 -10z"/>
<path d="M1080 1705 c0 -8 2 -15 4 -15 2 0 6 7 10 15 3 8 1 15 -4 15 -6 0 -10
-7 -10 -15z"/>
<path d="M426 2488 c26 -43 77 -108 85 -108 30 0 -10 84 -51 105 -35 18 -44
19 -34 3z"/>
<path d="M1140 2400 c0 -6 27 -10 60 -10 33 0 60 4 60 10 0 6 -27 10 -60 10
-33 0 -60 -4 -60 -10z"/>
<path d="M1163 2203 c20 -2 54 -2 75 0 20 2 3 4 -38 4 -41 0 -58 -2 -37 -4z"/>
<path d="M2773 2253 c9 -2 23 -2 30 0 6 3 -1 5 -18 5 -16 0 -22 -2 -12 -5z"/>
<path d="M341 2164 c0 -11 3 -14 6 -6 3 7 2 16 -1 19 -3 4 -6 -2 -5 -13z"/>
<path d="M370 2146 c0 -14 4 -27 8 -30 5 -3 6 8 4 25 -5 35 -12 38 -12 5z"/>
<path d="M415 2050 c9 -16 18 -30 21 -30 2 0 -2 14 -11 30 -9 17 -18 30 -21
30 -2 0 2 -13 11 -30z"/>
<path d="M460 2060 c-6 -11 -9 -26 -7 -33 3 -7 10 1 16 17 14 35 7 47 -9 16z"/>
<path d="M718 2086 c-21 -18 -38 -36 -38 -40 0 -16 57 25 68 48 14 32 15 32
-30 -8z"/>
<path d="M1160 2018 c0 -5 6 -8 14 -8 7 0 28 -3 45 -6 18 -4 31 -2 31 4 0 5
-20 12 -45 14 -25 2 -45 0 -45 -4z"/>
<path d="M3930 1650 c0 -6 33 -10 80 -10 47 0 80 4 80 10 0 6 -33 10 -80 10
-47 0 -80 -4 -80 -10z"/>
<path d="M3930 1510 c0 -6 34 -10 81 -10 51 0 78 4 74 10 -3 6 -40 10 -81 10
-43 0 -74 -4 -74 -10z"/>
<path d="M3930 1150 c0 -6 33 -10 80 -10 47 0 80 4 80 10 0 6 -33 10 -80 10
-47 0 -80 -4 -80 -10z"/>
<path d="M58 3232 l-28 -17 0 -267 c0 -147 4 -269 8 -272 8 -5 146 14 250 35
l52 10 -2 87 -2 87 -3 -71 -4 -71 -82 -11 -82 -11 85 4 c111 5 77 -9 -60 -24
-58 -7 -113 -15 -122 -17 -17 -5 -18 10 -18 221 0 135 4 224 9 220 5 -3 69
-14 142 -26 73 -11 134 -21 136 -23 1 -1 0 -39 -4 -84 l-6 -81 -46 -4 c-43 -4
-43 -4 7 -3 28 1 54 -3 56 -9 3 -5 5 58 5 141 l1 151 -112 22 c-62 12 -122 23
-133 26 -11 2 -32 -4 -47 -13z m150 -23 c140 -29 132 -25 132 -68 l0 -37 -72
12 c-257 42 -239 34 -218 88 12 32 29 33 158 5z"/>
<path d="M92 3088 c6 -18 38 -22 52 -8 8 9 4 10 -19 5 -23 -5 -26 -4 -15 4 13
9 12 11 -3 11 -11 0 -17 -6 -15 -12z"/>
<path d="M155 3070 c-3 -5 1 -10 10 -10 9 0 13 5 10 10 -3 6 -8 10 -10 10 -2
0 -7 -4 -10 -10z"/>
<path d="M173 2820 c0 -36 2 -50 4 -32 2 17 2 47 0 65 -2 17 -4 3 -4 -33z"/>
</g>
</svg>