<?xml version="1.0" standalone="no"?>
<!DOCTYPE svg PUBLIC "-//W3C//DTD SVG 20010904//EN"
 "http://www.w3.org/TR/2001/REC-SVG-20010904/DTD/svg10.dtd">
<svg version="1.0" xmlns="http://www.w3.org/2000/svg"
 width="512.000000pt" height="512.000000pt" viewBox="0 0 512.000000 512.000000"
 preserveAspectRatio="xMidYMid meet">
<metadata>
Created by potrace 1.16, written by Peter Selinger 2001-2019
</metadata>
<g transform="translate(0.000000,512.000000) scale(0.100000,-0.100000)"
fill="#000000" stroke="none">
<path d="M0 5058 l0 -63 50 55 c27 30 49 58 50 63 0 4 -22 7 -50 7 l-50 0 0
-62z"/>
<path d="M1455 5045 c88 -42 162 -80 163 -85 10 -27 90 5 152 60 19 17 47 38
63 46 15 8 27 19 27 25 0 6 3 8 8 6 4 -3 13 1 20 9 11 12 -31 14 -290 14
l-303 0 160 -75z"/>
<path d="M2650 5096 c-105 -71 -503 -276 -536 -276 -13 0 -64 13 -112 29 -91
29 -198 48 -188 33 3 -5 69 -37 146 -73 l141 -64 -96 -47 c-52 -26 -130 -65
-173 -87 -190 -100 -457 -221 -486 -221 -17 1 -71 9 -120 19 -85 17 -87 17
-65 0 13 -10 29 -19 34 -19 6 0 34 -20 62 -45 54 -47 73 -87 73 -151 0 -20 6
-34 16 -38 30 -11 37 -6 19 14 -17 19 -17 20 6 29 35 14 81 47 79 57 -1 11 20
40 89 122 43 52 49 63 30 56 -71 -22 -109 -33 -109 -29 0 6 177 95 189 95 6 0
12 -33 14 -72 l3 -73 2 77 2 78 109 55 110 55 4 -43 4 -42 1 45 2 45 97 50
c53 28 105 58 114 67 10 9 69 45 131 79 295 161 528 291 528 295 0 2 -19 4
-43 4 -28 0 -54 -8 -77 -24z"/>
<path d="M3018 5049 c-3 -74 -4 -74 45 -54 15 6 14 3 -5 -17 -29 -32 -84 -63
-126 -71 -18 -4 -116 -48 -218 -98 l-186 -90 -79 41 c-43 22 -79 39 -79 36 0
-3 33 -22 73 -43 l72 -36 -130 -63 c-71 -34 -176 -81 -233 -104 -56 -24 -107
-51 -112 -61 -6 -9 -19 -21 -31 -24 -11 -4 -18 -9 -16 -11 7 -7 117 43 117 53
0 4 11 9 25 9 13 1 71 24 127 52 57 27 137 63 178 80 41 16 163 70 270 119
241 111 268 122 279 105 5 -9 20 -6 57 14 121 64 124 66 113 86 -9 16 -2 22
51 45 33 15 60 32 60 39 0 10 70 43 119 56 8 2 -72 4 -177 5 l-190 1 -4 -69z"/>
<path d="M3430 5010 c-222 -112 -487 -242 -575 -280 -27 -12 -86 -39 -130 -60
-44 -21 -114 -53 -155 -73 -41 -19 -104 -48 -140 -65 -169 -79 -372 -167 -435
-188 -38 -13 -97 -37 -130 -54 -66 -32 -115 -43 -136 -29 -10 6 -16 2 -19 -14
-5 -18 -18 -25 -67 -35 -45 -10 -62 -18 -66 -32 -4 -15 4 -22 42 -34 25 -8 58
-17 72 -20 16 -3 29 -15 33 -28 5 -20 10 -15 26 32 35 95 32 94 330 212 151
60 295 118 320 130 25 11 81 31 125 43 69 19 181 64 237 95 10 6 27 10 37 10
11 0 22 4 25 9 3 4 19 11 34 14 16 3 63 21 103 40 41 19 92 40 114 47 22 7 46
17 53 23 6 5 12 7 12 3 0 -4 11 1 25 10 14 9 25 12 25 8 0 -5 4 -4 8 1 8 12
150 64 202 74 19 4 70 24 112 44 43 21 88 39 100 41 13 3 24 5 26 7 1 1 5 2
10 3 4 1 13 5 20 9 7 5 25 11 39 13 15 3 30 10 34 15 3 6 9 10 13 9 10 -3 120
32 131 42 5 4 17 8 26 8 10 0 30 5 46 12 15 6 31 12 36 13 4 2 9 4 12 5 5 3 6
3 50 15 17 4 35 11 40 15 6 5 21 10 35 13 14 2 -90 5 -230 5 l-255 1 -215
-109z"/>
<path d="M4994 5083 c5 -47 29 -95 75 -153 20 -24 35 -51 33 -58 -2 -8 1 -11
7 -7 7 4 11 53 11 131 l0 124 -65 0 -65 0 4 -37z"/>
<path d="M1400 5020 c0 -5 -3 -16 -7 -26 -5 -13 -3 -15 7 -9 9 6 11 4 6 -4 -5
-7 -14 -10 -21 -7 -9 3 -13 -2 -12 -14 1 -18 3 -18 24 -5 12 8 28 15 35 15 7
0 20 6 29 13 15 11 12 14 -22 29 -22 9 -39 13 -39 8z"/>
<path d="M1455 4868 c-66 -45 -203 -136 -305 -201 l-185 -118 -3 31 c-2 22
-10 34 -23 37 -27 7 -24 19 10 32 24 10 59 57 49 66 -12 10 -48 14 -48 6 0 -6
-10 -10 -22 -9 -35 2 -89 -17 -132 -46 -41 -28 -124 -56 -164 -56 -37 0 -141
29 -199 55 -52 24 -176 105 -180 118 -2 4 -6 7 -10 8 -5 1 -19 9 -33 18 -14 9
-34 16 -45 16 -11 0 -23 4 -27 10 -5 6 -8 5 -8 -4 0 -11 -3 -11 -15 -1 -9 7
-15 8 -15 2 0 -5 -14 -12 -30 -14 l-30 -5 22 26 c13 14 4 8 -20 -14 l-42 -39
0 -123 c0 -68 4 -123 9 -123 5 0 17 -3 26 -6 9 -4 15 -3 14 2 -4 21 2 34 15
34 8 0 17 -6 19 -12 3 -8 6 -5 6 6 1 12 6 16 16 12 8 -3 15 0 15 6 0 6 3 9 6
5 3 -3 18 -1 33 5 14 5 35 11 46 13 11 2 38 9 60 17 22 8 49 13 60 12 157 -14
282 -91 355 -219 17 -30 35 -55 39 -55 4 0 29 23 56 51 28 29 44 49 38 45 -7
-4 -13 -5 -13 -3 0 6 71 139 78 147 2 3 2 -21 0 -53 -3 -64 7 -72 52 -37 14
11 29 20 33 20 4 0 43 24 87 53 125 83 259 167 288 180 15 6 34 18 42 27 22
22 78 60 88 60 5 0 22 12 37 26 16 14 41 31 57 36 24 9 41 38 21 38 -5 0 -62
-37 -128 -82z"/>
<path d="M5080 4890 c0 -5 5 -10 11 -10 5 0 7 5 4 10 -3 6 -8 10 -11 10 -2 0
-4 -4 -4 -10z"/>
<path d="M5020 4710 c-47 -16 -157 -51 -245 -78 -88 -28 -374 -118 -635 -200
-465 -147 -820 -255 -1070 -326 -69 -19 -199 -55 -290 -81 -91 -25 -341 -96
-557 -157 l-392 -111 -318 71 c-175 39 -460 104 -633 143 -173 40 -331 73
-350 75 -19 1 -51 8 -70 16 l-35 15 76 50 76 50 -51 10 c-28 6 -53 8 -56 4 -3
-3 -21 -13 -40 -21 -56 -24 -196 -18 -319 13 -57 15 -106 27 -107 27 -2 0 -4
-27 -4 -60 0 -40 4 -62 13 -64 6 -2 62 -13 122 -25 61 -11 136 -31 168 -43 52
-21 60 -28 82 -73 25 -51 45 -176 45 -282 0 -29 5 -53 10 -53 6 0 10 35 10 84
0 66 4 88 17 102 16 15 17 15 24 -2 4 -11 8 38 8 107 1 69 3 128 6 131 3 3 32
-1 63 -8 31 -8 219 -50 417 -93 198 -44 419 -93 490 -109 72 -16 186 -42 255
-57 l126 -27 279 76 c154 41 431 115 615 165 506 136 896 249 1445 421 351
110 911 280 921 280 2 0 4 14 4 30 0 17 -3 30 -7 29 -5 0 -46 -13 -93 -29z"/>
<path d="M25 4510 c11 -5 27 -9 35 -9 9 0 8 4 -5 9 -11 5 -27 9 -35 9 -9 0 -8
-4 5 -9z"/>
<path d="M1960 4440 c-9 -6 -10 -10 -3 -10 6 0 15 5 18 10 8 12 4 12 -15 0z"/>
<path d="M472 4383 c10 -2 20 -17 23 -31 3 -15 12 -49 20 -76 8 -27 12 -52 10
-56 -6 -9 83 -33 100 -26 13 5 15 20 13 77 l-3 72 -80 23 c-44 13 -84 23 -90
23 -5 -1 -2 -3 7 -6z"/>
<path d="M0 4357 c0 -8 24 -18 63 -26 87 -17 89 -17 216 -50 108 -28 141 -30
141 -9 0 5 -4 7 -10 3 -5 -3 -98 17 -206 45 -107 27 -198 50 -200 50 -2 0 -4
-6 -4 -13z"/>
<path d="M4585 4184 c-291 -73 -540 -136 -552 -139 -24 -8 -31 -25 -10 -25 6
0 22 -8 34 -18 21 -16 23 -27 27 -167 2 -82 5 -429 5 -769 1 -341 3 -617 6
-615 2 3 5 106 5 230 1 253 18 998 24 1044 2 17 7 62 11 100 3 39 17 93 29
120 23 50 80 106 121 118 11 3 38 12 60 20 22 8 54 17 70 20 17 2 48 9 70 15
57 16 164 40 205 47 19 3 49 8 65 11 17 3 39 8 50 11 11 4 27 7 35 9 8 1 42 6
75 12 214 39 208 36 203 79 l-3 30 -530 -133z"/>
<path d="M786 4251 c12 -11 900 -235 1287 -325 9 -2 17 -1 17 4 0 4 -10 10
-22 12 -13 3 -301 75 -640 162 -340 86 -625 156 -635 156 -10 0 -13 -3 -7 -9z"/>
<path d="M1861 3704 c0 -11 3 -14 6 -6 3 7 2 16 -1 19 -3 4 -6 -2 -5 -13z"/>
<path d="M1853 3564 c4 -22 8 -91 8 -154 1 -63 4 -99 6 -80 8 88 14 104 29 89
39 -40 74 -380 81 -806 6 -303 1 -382 -22 -363 -8 6 -22 10 -32 7 -14 -4 -13
-5 5 -6 12 0 22 -5 22 -11 0 -5 7 -10 15 -10 20 0 29 -43 16 -80 -10 -29 -9
-31 12 -28 l22 3 3 722 2 722 -57 11 c-131 25 -117 27 -110 -16z"/>
<path d="M860 3206 c0 -73 4 -127 10 -131 6 -4 10 40 10 124 0 81 -4 131 -10
131 -6 0 -10 -48 -10 -124z"/>
<path d="M2826 3293 c-4 -4 -17 -8 -29 -8 -12 0 -23 -7 -25 -17 -2 -13 1 -16
12 -12 9 3 13 10 10 15 -3 5 2 6 10 3 9 -3 16 -13 16 -21 0 -8 4 -11 10 -8 5
3 9 17 8 30 -3 28 -2 27 -12 18z"/>
<path d="M2521 3243 c0 -21 3 -32 6 -25 2 6 9 9 15 6 6 -4 8 5 6 22 -5 44 -28
42 -27 -3z"/>
<path d="M2673 3264 c-5 -13 -7 -13 -14 -2 -7 10 -9 10 -9 1 0 -7 -5 -13 -11
-13 -5 0 -7 5 -3 11 4 7 2 10 -5 8 -7 -3 -12 -8 -12 -12 1 -4 1 -14 1 -22 0
-8 9 -15 20 -15 11 0 20 5 20 11 0 8 4 8 14 0 9 -7 17 -8 20 -2 3 5 15 7 26 4
14 -4 20 0 20 11 0 9 -5 16 -11 16 -5 0 -7 5 -4 10 3 6 1 10 -4 10 -6 0 -11
-6 -11 -14 0 -7 -7 -19 -15 -26 -13 -10 -15 -9 -15 11 0 19 2 21 10 9 8 -13
10 -12 10 3 0 21 -19 22 -27 1z"/>
<path d="M2748 3255 c2 -14 9 -25 14 -25 6 0 7 7 4 16 -3 9 -6 20 -6 25 0 5
-4 9 -9 9 -4 0 -6 -11 -3 -25z"/>
<path d="M2562 3238 c2 -12 10 -23 18 -23 22 0 19 39 -3 43 -15 3 -18 -1 -15
-20z m28 -9 c0 -5 -4 -9 -10 -9 -5 0 -10 7 -10 16 0 8 5 12 10 9 6 -3 10 -10
10 -16z"/>
<path d="M2785 3240 c4 -6 11 -8 16 -5 14 9 11 15 -7 15 -8 0 -12 -5 -9 -10z"/>
<path d="M1 3186 c2 -2 67 -9 144 -15 77 -7 155 -14 173 -17 l32 -5 0 -793 0
-794 -32 -5 c-18 -3 -94 -14 -168 -23 -74 -9 -139 -21 -145 -25 -13 -13 1 -12
165 10 201 27 250 30 250 17 0 -14 73 -56 97 -56 11 0 14 3 7 8 -7 4 -14 18
-15 31 l-4 25 230 32 c127 18 289 40 360 48 72 9 146 18 165 21 19 3 1 -6 -40
-20 -57 -18 -81 -32 -99 -56 -16 -21 -20 -34 -13 -41 16 -16 38 -3 52 29 11
25 24 32 87 50 l73 20 -1 -31 c0 -17 -3 -25 -6 -18 -5 13 -73 17 -73 4 0 -12
46 -35 57 -29 5 3 7 -7 5 -24 -4 -28 -2 -30 19 -27 27 3 40 38 15 38 -9 0 -16
5 -16 11 0 7 11 9 28 6 15 -3 46 -2 69 2 28 6 43 5 46 -3 2 -7 10 -4 21 7 23
23 29 22 14 -3 -11 -17 -10 -22 2 -30 23 -14 35 5 22 35 -8 17 -16 23 -28 18
-12 -4 -15 -3 -10 5 4 7 1 12 -8 12 -8 0 -18 5 -22 11 -4 8 3 9 25 4 24 -5 31
-3 31 9 0 14 12 20 33 17 4 0 7 3 7 8 0 12 84 45 100 39 7 -2 -4 -12 -24 -23
-36 -20 -44 -38 -26 -65 11 -18 22 -8 26 23 1 12 3 25 3 30 1 4 8 7 17 7 8 0
12 -4 9 -10 -3 -5 4 -10 15 -10 15 0 20 5 17 14 -6 16 62 41 92 33 11 -2 22 0
25 7 2 6 5 3 5 -6 1 -9 -4 -20 -9 -23 -5 -3 -10 -1 -10 5 0 6 -5 8 -13 3 -6
-4 -19 -6 -29 -5 -18 3 -32 -13 -23 -28 4 -6 14 -5 27 3 16 9 22 9 25 -1 3 -6
8 -10 12 -8 4 3 8 -7 9 -22 2 -20 -1 -23 -10 -14 -19 19 -33 14 -36 -13 -1
-19 3 -25 19 -25 22 0 72 48 63 61 -3 5 2 19 10 31 10 13 16 17 16 9 0 -8 3
-11 7 -8 3 4 16 1 29 -8 20 -13 21 -12 17 4 -2 9 -20 23 -39 30 -65 23 -27 22
42 -1 41 -14 68 -28 66 -36 -1 -6 3 -12 9 -12 6 0 9 9 6 20 -4 16 -1 20 11 16
9 -3 53 -12 97 -21 72 -16 89 -16 180 -2 64 9 110 11 130 6 16 -5 41 -9 55 -9
20 0 22 2 10 10 -19 12 16 6 157 -26 139 -32 143 -32 141 11 -1 22 -7 36 -17
39 -19 6 -334 66 -344 66 -4 0 -7 -11 -7 -25 0 -28 -1 -29 -142 -49 -89 -13
-102 -13 -169 4 -40 11 -76 17 -81 14 -4 -3 -8 43 -8 102 0 90 -3 109 -17 119
-14 11 -23 10 -47 -2 -23 -12 -51 -13 -155 -7 -69 4 -130 7 -135 6 -4 -2 -14
5 -22 15 -13 17 -13 17 -14 -4 0 -14 11 -29 28 -40 15 -10 30 -22 33 -27 4 -5
16 -6 28 -3 12 3 19 1 15 -4 -3 -5 4 -9 15 -9 12 0 21 -6 21 -14 0 -8 8 -17
18 -20 11 -4 19 -17 20 -36 3 -34 14 -32 -223 -55 -88 -8 -173 -17 -188 -19
-31 -3 -47 18 -28 37 6 6 11 20 11 30 0 17 5 19 34 14 24 -4 39 -1 47 9 6 8
20 12 30 9 25 -8 59 29 59 65 0 36 -23 50 -79 50 -34 0 -41 3 -41 19 0 11 7
27 16 36 9 9 15 18 13 19 -5 5 -100 9 -150 7 -19 0 -44 -8 -55 -16 -18 -14
-17 -14 9 -5 16 5 44 10 63 10 28 0 34 -4 35 -22 l0 -23 15 21 c9 14 22 20 34
17 15 -4 17 -9 9 -33 -9 -25 -15 -28 -83 -33 -41 -4 -84 -11 -97 -16 -24 -9
-24 -8 -24 68 0 63 -5 86 -28 134 -16 31 -32 57 -36 57 -4 0 -16 7 -27 16 -18
15 -18 15 11 9 22 -4 26 -3 15 5 -22 14 -40 12 -47 -6 -3 -9 3 -21 16 -30 51
-36 95 -180 71 -234 -9 -22 -10 -20 -6 15 l5 40 -16 -30 c-13 -25 -14 -37 -4
-75 15 -57 32 -70 95 -71 28 -1 43 -3 33 -6 -30 -8 -16 -38 21 -41 31 -3 39
-15 24 -39 -4 -7 -63 -19 -132 -27 -69 -9 -253 -34 -410 -55 l-285 -40 -34 22
c-29 18 -34 18 -28 4 5 -12 0 -18 -18 -23 -14 -3 -25 -10 -25 -14 0 -5 -9 -6
-20 -3 -20 5 -20 14 -20 804 l0 798 -32 5 c-106 16 -337 32 -327 22z m1397
-1321 c2 -2 -1 -12 -7 -23 -9 -17 -23 -21 -88 -24 -89 -4 -103 -1 -103 18 0 8
1 14 3 14 1 0 19 6 40 13 31 11 143 12 155 2z m80 -15 c12 -12 22 -22 22 -24
0 -4 -84 4 -88 8 -1 2 0 11 4 20 8 22 36 20 62 -4z m432 2 c0 -5 -7 -9 -15 -9
-8 0 -15 4 -15 9 0 4 7 8 15 8 8 0 15 -4 15 -8z m40 -59 c0 -7 -1 -14 -2 -15
-1 -2 4 -13 10 -25 11 -20 9 -21 -46 -27 -31 -3 -64 -4 -72 -4 -22 2 -26 58
-5 58 11 0 14 6 9 25 -6 24 -4 25 19 20 14 -4 34 -2 44 4 14 8 21 6 31 -6 6
-9 12 -23 12 -30z m630 -113 c12 -8 12 -10 -5 -10 -11 0 -27 5 -35 10 -12 8
-12 10 5 10 11 0 27 -5 35 -10z m-1094 -27 c-7 -7 -77 -5 -85 3 -2 2 17 4 44
4 27 0 45 -3 41 -7z m-46 -23 c0 -5 -7 -7 -15 -4 -8 4 -15 8 -15 10 0 2 7 4
15 4 8 0 15 -4 15 -10z m25 -41 c5 -5 -5 -9 -27 -9 -20 0 -40 5 -43 10 -3 6
-17 10 -31 10 -23 0 -31 10 -18 23 7 7 105 -21 119 -34z"/>
<path d="M1300 3136 c0 -24 -3 -53 -7 -63 -6 -16 -5 -16 10 -4 19 15 25 111 7
111 -5 0 -10 -20 -10 -44z"/>
<path d="M2890 3176 c0 -2 14 -6 30 -8 17 -3 30 -1 30 4 0 4 -13 8 -30 8 -16
0 -30 -2 -30 -4z"/>
<path d="M1340 3129 c0 -59 65 -95 90 -50 15 30 12 36 -9 17 -19 -17 -51 -13
-51 8 0 7 7 21 15 32 12 16 16 17 24 4 12 -18 26 -7 17 15 -4 11 -17 15 -46
13 -39 -3 -40 -4 -40 -39z m17 -21 c-3 -7 -5 -2 -5 12 0 14 2 19 5 13 2 -7 2
-19 0 -25z"/>
<path d="M2793 3163 c9 -2 25 -2 35 0 9 3 1 5 -18 5 -19 0 -27 -2 -17 -5z"/>
<path d="M1453 3144 c-4 -11 3 -23 20 -36 32 -24 26 -41 -11 -31 -24 6 -26 5
-13 -10 19 -24 58 -22 66 4 5 14 0 28 -16 45 l-22 24 26 0 c26 0 27 -2 27 -50
0 -27 5 -50 10 -50 6 0 10 24 10 54 0 52 -1 54 -31 60 -48 9 -59 7 -66 -10z"/>
<path d="M2698 3153 c6 -2 18 -2 25 0 6 3 1 5 -13 5 -14 0 -19 -2 -12 -5z"/>
<path d="M1567 3143 c-13 -12 -7 -80 7 -93 8 -6 25 -10 38 -8 19 2 23 10 25
40 1 23 -4 44 -13 53 -16 16 -46 20 -57 8z m50 -49 c-2 -14 -7 -26 -11 -27
-14 -3 -30 29 -23 46 10 26 38 9 34 -19z"/>
<path d="M1650 3130 c0 -5 7 -10 15 -10 8 0 15 5 15 10 0 6 -7 10 -15 10 -8 0
-15 -4 -15 -10z"/>
<path d="M966 3075 c4 -8 8 -15 10 -15 2 0 4 7 4 15 0 8 -4 15 -10 15 -5 0 -7
-7 -4 -15z"/>
<path d="M1053 3065 c0 -8 4 -15 9 -15 4 0 8 5 8 11 0 8 5 8 15 -1 9 -7 15 -8
15 -2 0 9 -22 22 -39 22 -4 0 -8 -7 -8 -15z"/>
<path d="M1110 3061 c0 -6 4 -13 10 -16 6 -3 7 1 4 9 -7 18 -14 21 -14 7z"/>
<path d="M1160 3055 c0 -8 2 -15 4 -15 2 0 6 7 10 15 3 8 1 15 -4 15 -6 0 -10
-7 -10 -15z"/>
<path d="M1207 3056 c-3 -8 0 -17 7 -19 10 -4 12 1 9 14 -6 23 -9 24 -16 5z"/>
<path d="M0 2705 l0 -345 85 0 85 0 0 339 0 338 -61 7 c-34 3 -73 6 -85 6
l-24 0 0 -345z"/>
<path d="M1270 3038 c0 -4 3 -8 8 -9 4 0 15 -2 25 -4 9 -2 17 2 17 9 0 7 -11
12 -25 12 -14 0 -25 -4 -25 -8z"/>
<path d="M1334 3028 c-3 -4 -4 -8 -2 -9 27 -6 38 -5 38 5 0 14 -28 17 -36 4z"/>
<path d="M1420 3021 c0 -5 8 -15 18 -22 15 -13 16 -12 4 3 -10 13 -10 17 0 21
8 4 7 6 -4 6 -10 1 -18 -3 -18 -8z"/>
<path d="M1480 3005 c-10 -12 -10 -15 2 -15 8 0 15 7 15 15 0 8 -1 15 -2 15
-2 0 -8 -7 -15 -15z"/>
<path d="M1510 2995 c0 -8 4 -15 8 -15 5 0 9 7 9 15 0 8 -4 15 -9 15 -4 0 -8
-7 -8 -15z"/>
<path d="M1595 2980 c-3 -5 1 -10 10 -10 9 0 13 5 10 10 -3 6 -8 10 -10 10 -2
0 -7 -4 -10 -10z"/>
<path d="M2755 2878 c-110 -4 -224 -11 -252 -14 l-53 -5 0 -149 c0 -145 0
-148 23 -153 17 -5 462 -11 525 -8 10 1 12 38 10 169 l-3 167 -25 1 c-14 1
-115 -3 -225 -8z m27 -125 c37 -33 11 -103 -39 -103 -17 0 -28 9 -38 33 -8 17
-14 26 -15 20 0 -8 -13 -13 -30 -13 -23 0 -30 5 -30 19 0 22 49 39 60 21 4 -7
13 -2 24 14 19 30 42 33 68 9z"/>
<path d="M2725 2740 c-15 -16 -17 -26 -9 -48 11 -32 43 -41 61 -16 17 24 16
49 -3 68 -20 21 -27 20 -49 -4z m30 -30 c3 -5 -1 -10 -9 -10 -9 0 -16 5 -16
10 0 6 4 10 9 10 6 0 13 -4 16 -10z"/>
<path d="M2650 2712 c0 -5 7 -9 15 -9 8 0 15 4 15 9 0 4 -7 8 -15 8 -8 0 -15
-4 -15 -8z"/>
<path d="M2446 2407 c-13 -96 -26 -240 -23 -244 2 -2 45 -7 96 -12 118 -11
131 -23 21 -21 -124 3 -150 1 -150 -10 0 -5 21 -10 48 -10 26 0 76 -5 112 -12
96 -16 182 -19 174 -6 -5 7 18 8 77 3 112 -10 98 1 -21 16 -126 15 -137 29
-17 22 95 -6 96 -6 101 18 11 57 26 273 19 280 -5 3 -103 9 -220 12 l-212 5
-5 -41z m238 -73 c-4 -15 -2 -24 5 -24 6 0 11 -11 11 -24 0 -47 -88 -77 -110
-37 -16 30 -13 38 30 81 44 44 74 46 64 4z"/>
<path d="M2610 2306 c-18 -23 -8 -61 16 -64 16 -2 25 4 32 25 8 21 11 23 11 9
1 -15 4 -17 13 -8 9 9 7 16 -7 32 -21 24 -48 26 -65 6z m40 -32 c0 -2 -7 -4
-15 -4 -8 0 -15 4 -15 10 0 5 7 7 15 4 8 -4 15 -8 15 -10z"/>
<path d="M4023 2225 c2 -207 3 -216 22 -220 11 -2 65 -6 120 -10 55 -3 124 -8
154 -11 l53 -7 -5 -39 -5 -39 148 3 c82 2 146 5 144 7 -8 8 -154 16 -154 9 0
-5 -12 -8 -27 -7 l-28 1 25 8 25 8 -27 1 c-23 1 -28 6 -28 26 0 21 4 25 23 21
12 -3 76 -8 142 -11 l120 -6 0 238 0 238 -352 3 -351 2 1 -215z"/>
<path d="M3572 2390 c0 -19 2 -27 5 -17 2 9 2 25 0 35 -3 9 -5 1 -5 -18z"/>
<path d="M3381 2384 c0 -11 3 -14 6 -6 3 7 2 16 -1 19 -3 4 -6 -2 -5 -13z"/>
<path d="M3373 2305 c0 -22 2 -30 4 -17 2 12 2 30 0 40 -3 9 -5 -1 -4 -23z"/>
<path d="M1780 2293 c0 -5 7 -16 15 -27 19 -24 65 -15 65 14 0 17 -7 20 -40
20 -22 0 -40 -3 -40 -7z"/>
<path d="M1620 2270 c0 -18 7 -20 81 -20 73 0 80 2 68 16 -9 11 -26 15 -60 12
-26 -1 -45 0 -42 5 2 4 -7 7 -21 7 -19 0 -26 -5 -26 -20z"/>
<path d="M265 2250 c8 -13 35 -13 55 0 11 7 5 10 -23 10 -23 0 -36 -4 -32 -10z"/>
<path d="M1584 2177 c4 -29 10 -77 13 -108 l6 -57 -28 6 c-20 3 -26 2 -20 -7
4 -7 13 -10 21 -7 8 3 17 -1 20 -9 5 -12 10 -10 25 8 l20 22 -6 -40 -6 -40
101 -3 c59 -2 100 0 100 6 0 12 -49 22 -106 22 -36 0 -44 3 -44 19 0 17 8 19
90 17 84 -1 89 -2 84 -21 -4 -17 -2 -16 17 5 20 23 21 32 14 115 -3 49 -12 95
-18 101 -7 7 -68 14 -151 17 l-139 5 7 -51z"/>
<path d="M3320 2201 c0 -10 -3 -33 -6 -50 -6 -27 -4 -31 14 -31 16 0 22 9 27
40 4 21 4 44 0 50 -11 17 -35 11 -35 -9z"/>
<path d="M236 2200 c15 -15 82 -16 96 -2 9 9 -2 12 -47 12 -40 0 -56 -3 -49
-10z"/>
<path d="M2114 2203 c-37 -4 -42 -7 -40 -29 1 -19 6 -24 29 -24 38 0 34 -20
-5 -21 -22 -1 -13 -5 27 -11 42 -7 61 -6 63 1 2 6 24 11 48 11 43 0 44 1 44
34 0 32 -2 34 -46 40 -26 3 -54 5 -63 4 -9 -1 -35 -3 -57 -5z"/>
<path d="M103 2193 c15 -2 37 -2 50 0 12 2 0 4 -28 4 -27 0 -38 -2 -22 -4z"/>
<path d="M3370 2172 c0 -4 29 -9 65 -10 40 -2 65 1 65 8 0 6 -27 10 -65 10
-36 0 -65 -4 -65 -8z"/>
<path d="M600 2147 c0 -18 5 -27 15 -27 13 0 14 4 4 23 -17 33 -19 33 -19 4z"/>
<path d="M3037 2118 c-28 -10 -53 -18 -54 -18 -10 0 -1 -30 10 -30 6 0 55 -5
107 -10 98 -10 210 -4 210 11 0 5 -27 9 -60 9 -33 0 -60 4 -60 10 0 6 18 10
40 10 38 0 59 19 23 21 -10 0 -51 4 -92 8 -59 6 -83 3 -124 -11z m146 -5 c-13
-2 -33 -2 -45 0 -13 2 -3 4 22 4 25 0 35 -2 23 -4z"/>
<path d="M3573 2065 c0 -44 2 -61 4 -37 2 23 2 59 0 80 -2 20 -4 1 -4 -43z"/>
<path d="M3312 2086 c5 -10 8 -28 6 -41 -4 -20 -1 -23 31 -22 20 1 50 -2 66
-6 25 -6 26 -6 8 2 -18 8 -23 18 -23 50 l0 40 -49 -2 c-44 -2 -48 -4 -39 -21z"/>
<path d="M2180 2073 c19 -8 30 -25 23 -36 -5 -8 -68 -4 -135 9 -16 3 -28 1
-28 -4 0 -10 139 -26 201 -23 23 1 43 -5 53 -14 9 -9 16 -13 16 -9 0 5 5 3 12
-4 7 -7 19 -12 28 -12 9 0 26 -10 38 -23 19 -20 22 -36 24 -118 l1 -94 8 110
c11 155 18 179 52 183 15 2 27 -1 27 -7 0 -13 38 -13 65 0 16 7 13 8 -13 4
-18 -2 -41 -1 -50 4 -9 5 -75 15 -147 21 -71 6 -143 13 -160 16 -16 2 -23 1
-15 -3z"/>
<path d="M1979 2063 c-1 -5 0 -19 1 -32 1 -20 -2 -23 -21 -18 -30 8 -56 -7
-75 -46 l-16 -32 30 35 c26 30 33 33 49 24 12 -7 25 -8 34 -3 13 6 15 3 11
-21 -2 -15 1 -36 7 -47 8 -14 10 1 11 65 0 66 -3 82 -15 82 -8 0 -15 -3 -16
-7z"/>
<path d="M2633 2023 c9 -2 23 -2 30 0 6 3 -1 5 -18 5 -16 0 -22 -2 -12 -5z"/>
<path d="M2730 2021 c-44 -6 -44 -6 -17 -18 16 -8 27 -9 27 -3 0 6 9 10 20 10
18 0 20 -7 20 -69 0 -61 2 -70 20 -76 12 -4 33 -24 47 -46 14 -22 28 -37 30
-35 7 7 -47 75 -69 87 -10 5 -18 18 -18 29 0 19 38 55 71 65 13 4 19 16 19 36
0 29 -1 29 -52 27 -29 0 -73 -4 -98 -7z"/>
<path d="M1265 2000 c-12 -5 8 -6 50 -3 39 3 72 7 74 9 9 8 -105 2 -124 -6z"/>
<path d="M2460 2002 c0 -12 24 -17 150 -32 102 -12 130 -13 130 -2 0 4 -46 14
-102 21 -57 6 -120 15 -140 18 -24 3 -38 1 -38 -5z"/>
<path d="M3307 2002 c6 -4 13 -32 16 -62 l3 -55 2 63 c2 53 0 62 -15 62 -12 0
-14 -3 -6 -8z"/>
<path d="M2450 1959 c0 -5 5 -7 10 -4 6 3 10 8 10 11 0 2 -4 4 -10 4 -5 0 -10
-5 -10 -11z"/>
<path d="M4013 1963 c9 -2 23 -2 30 0 6 3 -1 5 -18 5 -16 0 -22 -2 -12 -5z"/>
<path d="M2490 1954 c8 -2 70 -12 138 -23 100 -15 122 -16 122 -5 0 14 -12 16
-90 19 -19 1 -69 4 -110 8 -41 3 -68 4 -60 1z"/>
<path d="M4130 1936 c0 -9 39 -13 51 -5 10 6 4 9 -18 9 -18 0 -33 -2 -33 -4z"/>
<path d="M4205 1930 c3 -5 8 -10 11 -10 2 0 4 5 4 10 0 6 -5 10 -11 10 -5 0
-7 -4 -4 -10z"/>
<path d="M4323 1933 c9 -2 23 -2 30 0 6 3 -1 5 -18 5 -16 0 -22 -2 -12 -5z"/>
<path d="M2454 1845 c0 -49 1 -71 3 -48 2 23 2 64 0 90 -2 26 -3 8 -3 -42z"/>
<path d="M3018 1923 c6 -2 18 -2 25 0 6 3 1 5 -13 5 -14 0 -19 -2 -12 -5z"/>
<path d="M4058 1803 c12 -2 32 -2 45 0 12 2 2 4 -23 4 -25 0 -35 -2 -22 -4z"/>
<path d="M2792 1780 c0 -14 2 -19 5 -12 2 6 2 18 0 25 -3 6 -5 1 -5 -13z"/>
<path d="M3560 1613 c0 -144 -3 -193 -12 -196 -7 -3 -2 -6 10 -6 l24 -1 -7
193 c-4 105 -9 194 -11 196 -2 2 -4 -82 -4 -186z"/>
<path d="M4168 1793 c12 -2 30 -2 40 0 9 3 -1 5 -23 4 -22 0 -30 -2 -17 -4z"/>
<path d="M4258 1783 c12 -2 30 -2 40 0 9 3 -1 5 -23 4 -22 0 -30 -2 -17 -4z"/>
<path d="M4348 1773 c12 -2 30 -2 40 0 9 3 -1 5 -23 4 -22 0 -30 -2 -17 -4z"/>
<path d="M4438 1763 c12 -2 30 -2 40 0 9 3 -1 5 -23 4 -22 0 -30 -2 -17 -4z"/>
<path d="M4520 1618 l5 -143 3 137 3 137 27 4 c23 3 22 4 -8 6 l-35 1 5 -142z"/>
<path d="M4618 1743 c12 -2 30 -2 40 0 9 3 -1 5 -23 4 -22 0 -30 -2 -17 -4z"/>
<path d="M4713 1733 c9 -2 23 -2 30 0 6 3 -1 5 -18 5 -16 0 -22 -2 -12 -5z"/>
<path d="M1934 1628 c15 -36 39 -44 58 -20 8 9 8 13 2 9 -7 -4 -15 0 -18 9 -4
10 -12 14 -22 10 -12 -4 -15 -2 -10 9 3 9 0 15 -9 15 -12 0 -12 -5 -1 -32z"/>
<path d="M2800 1651 c0 -28 21 -63 35 -57 8 3 15 2 15 -3 0 -5 -12 -12 -26
-15 -38 -10 -22 -18 19 -11 31 6 35 11 39 42 4 29 1 36 -20 44 -30 12 -62 12
-62 0z"/>
<path d="M2705 1580 c17 -11 39 -19 50 -19 12 0 8 4 -13 10 -18 5 -30 14 -27
19 4 6 -4 10 -17 10 -22 0 -21 -1 7 -20z"/>
<path d="M1088 1573 c6 -2 18 -2 25 0 6 3 1 5 -13 5 -14 0 -19 -2 -12 -5z"/>
<path d="M1028 1563 c6 -2 18 -2 25 0 6 3 1 5 -13 5 -14 0 -19 -2 -12 -5z"/>
<path d="M968 1553 c6 -2 18 -2 25 0 6 3 1 5 -13 5 -14 0 -19 -2 -12 -5z"/>
<path d="M908 1543 c7 -3 16 -2 19 1 4 3 -2 6 -13 5 -11 0 -14 -3 -6 -6z"/>
<path d="M838 1533 c7 -3 16 -2 19 1 4 3 -2 6 -13 5 -11 0 -14 -3 -6 -6z"/>
<path d="M768 1523 c6 -2 18 -2 25 0 6 3 1 5 -13 5 -14 0 -19 -2 -12 -5z"/>
<path d="M638 1503 c7 -3 16 -2 19 1 4 3 -2 6 -13 5 -11 0 -14 -3 -6 -6z"/>
<path d="M568 1493 c7 -3 16 -2 19 1 4 3 -2 6 -13 5 -11 0 -14 -3 -6 -6z"/>
<path d="M2937 1433 c-6 -30 6 -42 38 -43 11 0 99 -20 195 -44 163 -40 178
-42 225 -31 27 7 75 18 105 25 76 18 127 14 260 -20 63 -16 116 -27 119 -24
13 13 -31 29 -161 59 -78 18 -155 38 -170 44 -20 7 -47 5 -112 -11 l-87 -20
-197 46 c-108 25 -200 46 -203 46 -4 0 -9 -12 -12 -27z"/>
<path d="M4004 1416 c-3 -7 -4 -35 -2 -62 l3 -49 5 63 c5 63 4 73 -6 48z"/>
<path d="M4130 1316 c0 -36 -1 -66 -2 -66 -2 0 -28 7 -58 15 -66 18 -63 17
-55 5 3 -5 0 -10 -8 -10 -8 0 -22 -9 -32 -20 -24 -27 -35 -25 -35 5 0 21 5 25
33 26 l32 1 -30 13 c-44 21 -55 18 -55 -12 0 -16 -4 -34 -8 -41 -13 -19 -2
-71 13 -66 7 3 12 13 11 22 -1 14 8 17 49 15 64 -2 699 -132 724 -148 5 -3 9
14 8 37 l-2 43 -92 20 -93 19 0 68 c0 62 -2 68 -22 73 -13 3 -93 16 -178 30
-85 15 -165 29 -177 32 -22 5 -23 3 -23 -61z"/>
<path d="M4822 1140 c-29 -10 -59 -17 -67 -14 -11 4 -12 -6 -8 -55 5 -57 4
-61 -16 -61 -11 0 -21 -4 -21 -10 0 -5 14 -10 30 -10 26 0 30 4 30 28 l0 29
88 -3 c74 -3 174 -19 246 -41 10 -3 16 -1 13 4 -4 5 -45 18 -92 28 l-86 18 30
18 c16 9 32 22 35 28 4 6 17 11 29 12 12 1 -9 9 -48 19 -38 10 -79 21 -90 24
-11 3 -44 -4 -73 -14z"/>
</g>
</svg>